<svg width="363" height="250" viewBox="0 0 363 250" fill="none" xmlns="http://www.w3.org/2000/svg">
<path d="M11.1138 235.172C12.2058 235.172 13.0218 235.454 13.5618 236.018C14.1018 236.57 14.3718 237.47 14.3718 238.718V245H12.8058V238.79C12.8058 237.266 12.1518 236.504 10.8438 236.504C9.90779 236.504 9.23579 236.774 8.82779 237.314C8.43179 237.854 8.23379 238.64 8.23379 239.672V245H6.66779V238.79C6.66779 237.266 6.00779 236.504 4.68779 236.504C3.71579 236.504 3.04379 236.804 2.67179 237.404C2.29979 238.004 2.11379 238.868 2.11379 239.996V245H0.529785V235.352H1.80779L2.04179 236.666H2.13179C2.43179 236.162 2.83379 235.79 3.33779 235.55C3.85379 235.298 4.39979 235.172 4.97579 235.172C6.48779 235.172 7.47179 235.712 7.92779 236.792H8.01779C8.34179 236.24 8.77979 235.832 9.33179 235.568C9.89579 235.304 10.4898 235.172 11.1138 235.172Z" fill="#FFEBEA"/>
<path d="M25.7401 240.158C25.7401 241.754 25.3321 242.99 24.5161 243.866C23.7121 244.742 22.6201 245.18 21.2401 245.18C20.3881 245.18 19.626 244.988 18.9541 244.604C18.294 244.208 17.7721 243.638 17.3881 242.894C17.0041 242.138 16.8121 241.226 16.8121 240.158C16.8121 238.562 17.2141 237.332 18.0181 236.468C18.8221 235.604 19.9141 235.172 21.2941 235.172C22.1701 235.172 22.9381 235.37 23.5981 235.766C24.2701 236.15 24.7921 236.714 25.1641 237.458C25.5481 238.19 25.7401 239.09 25.7401 240.158ZM18.4501 240.158C18.4501 241.298 18.6721 242.204 19.1161 242.876C19.5721 243.536 20.2921 243.866 21.2761 243.866C22.2481 243.866 22.9621 243.536 23.4181 242.876C23.8741 242.204 24.1021 241.298 24.1021 240.158C24.1021 239.018 23.8741 238.124 23.4181 237.476C22.9621 236.828 22.2421 236.504 21.2581 236.504C20.2741 236.504 19.5601 236.828 19.1161 237.476C18.6721 238.124 18.4501 239.018 18.4501 240.158Z" fill="#FFEBEA"/>
<path d="M30.0229 245L26.3689 235.352H28.0609L30.1129 241.04C30.2089 241.304 30.3109 241.598 30.4189 241.922C30.5269 242.246 30.6229 242.558 30.7069 242.858C30.7909 243.146 30.8509 243.392 30.8869 243.596H30.9589C31.0069 243.392 31.0729 243.14 31.1569 242.84C31.2529 242.54 31.3549 242.228 31.4629 241.904C31.5829 241.58 31.6849 241.292 31.7689 241.04L33.8209 235.352H35.5129L31.8409 245H30.0229Z" fill="#FFEBEA"/>
<path d="M40.7656 235.172C41.5936 235.172 42.3016 235.352 42.8896 235.712C43.4896 236.072 43.9456 236.582 44.2576 237.242C44.5816 237.89 44.7435 238.652 44.7435 239.528V240.482H38.1376C38.1616 241.574 38.4375 242.408 38.9655 242.984C39.5055 243.548 40.2555 243.83 41.2155 243.83C41.8275 243.83 42.3676 243.776 42.8356 243.668C43.3156 243.548 43.8076 243.38 44.3116 243.164V244.55C43.8196 244.766 43.3335 244.922 42.8535 245.018C42.3736 245.126 41.8036 245.18 41.1436 245.18C40.2316 245.18 39.4216 244.994 38.7136 244.622C38.0176 244.25 37.4716 243.698 37.0756 242.966C36.6916 242.222 36.4995 241.316 36.4995 240.248C36.4995 239.192 36.6735 238.286 37.0215 237.53C37.3815 236.774 37.8796 236.192 38.5156 235.784C39.1636 235.376 39.9136 235.172 40.7656 235.172ZM40.7476 236.468C39.9916 236.468 39.3916 236.714 38.9476 237.206C38.5156 237.686 38.2575 238.358 38.1735 239.222H43.0876C43.0756 238.406 42.8836 237.746 42.5116 237.242C42.1396 236.726 41.5516 236.468 40.7476 236.468Z" fill="#FFEBEA"/>
<path d="M57.7837 235.172C58.8757 235.172 59.6917 235.454 60.2317 236.018C60.7717 236.57 61.0417 237.47 61.0417 238.718V245H59.4757V238.79C59.4757 237.266 58.8217 236.504 57.5137 236.504C56.5777 236.504 55.9057 236.774 55.4977 237.314C55.1017 237.854 54.9037 238.64 54.9037 239.672V245H53.3377V238.79C53.3377 237.266 52.6777 236.504 51.3577 236.504C50.3857 236.504 49.7137 236.804 49.3417 237.404C48.9697 238.004 48.7837 238.868 48.7837 239.996V245H47.1997V235.352H48.4777L48.7117 236.666H48.8017C49.1017 236.162 49.5037 235.79 50.0077 235.55C50.5237 235.298 51.0697 235.172 51.6457 235.172C53.1577 235.172 54.1417 235.712 54.5977 236.792H54.6877C55.0117 236.24 55.4497 235.832 56.0017 235.568C56.5657 235.304 57.1597 235.172 57.7837 235.172Z" fill="#FFEBEA"/>
<path d="M67.748 235.172C68.576 235.172 69.284 235.352 69.872 235.712C70.472 236.072 70.928 236.582 71.24 237.242C71.564 237.89 71.726 238.652 71.726 239.528V240.482H65.12C65.144 241.574 65.42 242.408 65.948 242.984C66.488 243.548 67.238 243.83 68.198 243.83C68.81 243.83 69.35 243.776 69.818 243.668C70.298 243.548 70.79 243.38 71.294 243.164V244.55C70.802 244.766 70.316 244.922 69.836 245.018C69.356 245.126 68.786 245.18 68.126 245.18C67.214 245.18 66.404 244.994 65.696 244.622C65 244.25 64.454 243.698 64.058 242.966C63.674 242.222 63.482 241.316 63.482 240.248C63.482 239.192 63.656 238.286 64.004 237.53C64.364 236.774 64.862 236.192 65.498 235.784C66.146 235.376 66.896 235.172 67.748 235.172ZM67.73 236.468C66.974 236.468 66.374 236.714 65.93 237.206C65.498 237.686 65.24 238.358 65.156 239.222H70.07C70.058 238.406 69.866 237.746 69.494 237.242C69.122 236.726 68.534 236.468 67.73 236.468Z" fill="#FFEBEA"/>
<path d="M78.8261 235.172C79.9781 235.172 80.8481 235.454 81.4361 236.018C82.0241 236.57 82.3181 237.47 82.3181 238.718V245H80.7521V238.826C80.7521 237.278 80.0321 236.504 78.5921 236.504C77.5241 236.504 76.7861 236.804 76.3781 237.404C75.9701 238.004 75.7661 238.868 75.7661 239.996V245H74.1821V235.352H75.4601L75.6941 236.666H75.7841C76.0961 236.162 76.5281 235.79 77.0801 235.55C77.6321 235.298 78.2141 235.172 78.8261 235.172Z" fill="#FFEBEA"/>
<path d="M88.5311 243.884C88.7711 243.884 89.0171 243.866 89.2691 243.83C89.5211 243.782 89.7251 243.734 89.8811 243.686V244.892C89.7131 244.976 89.4731 245.042 89.1611 245.09C88.8491 245.15 88.5491 245.18 88.2611 245.18C87.7571 245.18 87.2891 245.096 86.8571 244.928C86.4371 244.748 86.0951 244.442 85.8311 244.01C85.5671 243.578 85.4351 242.972 85.4351 242.192V236.576H84.0671V235.82L85.4531 235.19L86.0831 233.138H87.0191V235.352H89.8091V236.576H87.0191V242.156C87.0191 242.744 87.1571 243.182 87.4331 243.47C87.7211 243.746 88.0871 243.884 88.5311 243.884Z" fill="#FFEBEA"/>
<path d="M171.288 50.8914C171.283 50.8942 171.269 50.9026 171.269 50.9109C171.26 50.9109 171.227 50.8914 171.227 50.8914C171.227 50.8914 171.249 50.8914 171.288 50.8914ZM302.269 155.299C302.129 154.407 287.681 65.6541 268.549 54.4464C267.997 54.1247 267.093 53.7443 265.799 53.2856C262.033 47.3615 260.723 45.8343 259.852 45.3281C255.7 42.8947 229.856 36 219.602 36C217.973 36 216.741 36.1566 215.646 36.5678L208.013 40.6682H147.987L140.169 36.4839C139.262 36.1594 138.027 36.0028 136.398 36.0028C126.147 36.0028 100.303 42.8975 96.1508 45.3309C95.2772 45.8399 93.9668 47.3671 90.2008 53.2912C88.9044 53.7471 88.0028 54.1275 87.4484 54.452C68.3217 65.6513 53.8709 154.407 53.7309 155.299C51.4909 169.541 45.5382 207.368 83.632 213.964C83.7104 213.978 83.9624 214 84.0436 214C86.558 214 90.4416 209.928 98.9816 200.711C111.794 186.888 131.156 166 145.383 166H210.614C224.841 166 244.203 186.888 257.019 200.714C265.556 209.925 269.439 213.997 271.954 214C272.035 214 272.281 213.98 272.363 213.964C310.462 207.368 304.509 169.541 302.269 155.299ZM271.945 211.231C270.307 210.974 264.329 204.526 259.051 198.832C245.911 184.656 226.053 163.228 210.617 163.228H145.386C129.949 163.228 110.095 184.651 96.9544 198.829C91.6428 204.56 85.6228 211.058 84.1136 211.242C48.6994 205.108 54.3413 169.231 56.4665 155.727C60.0589 132.886 73.7229 65.6932 88.8484 56.8323C89.1004 56.684 89.7892 56.3484 91.5588 55.7414C91.8584 55.6379 92.1132 55.4393 92.2812 55.1708C96.036 49.2411 97.2008 47.9461 97.548 47.7112C100.986 45.6973 126.209 38.7607 136.395 38.7607C137.997 38.7607 138.82 38.9369 139.041 38.9984L146.982 43.2639C147.183 43.373 147.407 43.4289 147.637 43.4289H208.36C208.59 43.4289 208.814 43.373 209.016 43.2639L216.769 39.0823C217.178 38.9341 217.998 38.7607 219.602 38.7607C229.791 38.7607 255.011 45.6973 258.441 47.7056C258.799 47.9461 259.964 49.2411 263.719 55.1708C263.887 55.4393 264.142 55.6379 264.441 55.7414C266.211 56.3456 266.9 56.684 267.152 56.8295C282.28 65.6904 295.941 132.883 299.534 155.724C301.659 169.225 307.292 205.066 271.945 211.231ZM108.496 63.7101C96.666 63.7101 87.0424 73.3263 87.0424 85.1438C87.0424 96.9612 96.6688 106.575 108.496 106.575C120.329 106.575 129.955 96.9584 129.955 85.1438C129.955 73.3263 120.329 63.7101 108.496 63.7101ZM108.496 103.811C98.192 103.811 89.8116 95.4368 89.8116 85.1466C89.8116 74.8535 98.1948 66.4792 108.496 66.4792C118.803 66.4792 127.186 74.8535 127.186 85.1466C127.186 95.4368 118.8 103.811 108.496 103.811ZM164.272 122.87C164.272 122.87 165.395 125.144 165.395 128.99C165.395 132.844 164.272 135.115 164.272 135.115H152.75V145.976C152.75 145.976 150.476 147.098 146.621 147.098C142.765 147.098 140.489 145.976 140.489 145.976V135.118H129.622C129.622 135.118 128.496 132.844 128.496 128.993C128.496 125.147 129.622 122.873 129.622 122.873H140.489V111.369C140.489 111.369 142.765 110.241 146.621 110.241C150.476 110.241 152.75 111.369 152.75 111.369V122.873H164.272V122.87ZM239.552 84.9536C239.552 89.1071 236.17 92.4888 232.009 92.4888C227.851 92.4888 224.469 89.1071 224.469 84.9536C224.469 80.7972 227.851 77.4184 232.009 77.4184C236.17 77.4184 239.552 80.7972 239.552 84.9536ZM256.988 102.373C256.988 106.527 253.605 109.909 249.447 109.909C245.287 109.909 241.907 106.527 241.907 102.373C241.907 98.2199 245.287 94.8383 249.447 94.8383C253.605 94.8383 256.988 98.2199 256.988 102.373ZM256.988 67.5309C256.988 71.6845 253.605 75.0661 249.447 75.0661C245.287 75.0661 241.907 71.6845 241.907 67.5309C241.907 63.3745 245.287 59.9929 249.447 59.9929C253.605 59.9929 256.988 63.3745 256.988 67.5309ZM274.541 84.9536C274.541 89.1071 271.159 92.4888 266.998 92.4888C262.84 92.4888 259.457 89.1071 259.457 84.9536C259.457 80.7972 262.84 77.4184 266.998 77.4184C271.159 77.4184 274.541 80.7972 274.541 84.9536ZM198.53 90.9532C201.422 90.9532 203.768 88.6065 203.768 85.72C203.768 82.8334 201.422 80.4867 198.53 80.4867C195.637 80.4867 193.288 82.8334 193.288 85.72C193.288 88.6065 195.637 90.9532 198.53 90.9532ZM108.502 69.9335C100.107 69.9335 93.278 76.7583 93.278 85.1494C93.278 93.5348 100.107 100.354 108.502 100.354C116.893 100.354 123.719 93.5348 123.719 85.1494C123.719 76.7611 116.893 69.9335 108.502 69.9335ZM108.502 97.5905C101.633 97.5905 96.0472 92.0105 96.0472 85.1522C96.0472 78.2855 101.633 72.7026 108.502 72.7026C115.367 72.7026 120.95 78.2883 120.95 85.1522C120.95 92.0105 115.364 97.5905 108.502 97.5905ZM117.627 85.1494C117.627 90.1952 113.547 94.2844 108.496 94.2844C103.456 94.2844 99.3624 90.1952 99.3624 85.1494C99.3624 80.1091 103.456 76.0227 108.496 76.0227C113.547 76.0227 117.627 80.1091 117.627 85.1494ZM213.232 107.391C201.402 107.391 191.779 117.007 191.779 128.828C191.779 140.645 201.405 150.259 213.232 150.259C225.065 150.259 234.691 140.642 234.691 128.828C234.691 117.007 225.065 107.391 213.232 107.391ZM213.232 147.489C202.928 147.489 194.548 139.118 194.548 128.825C194.548 118.529 202.931 110.155 213.232 110.155C223.539 110.155 231.922 118.529 231.922 128.825C231.922 139.118 223.539 147.489 213.232 147.489ZM213.238 113.615C204.844 113.615 198.014 120.439 198.014 128.831C198.014 137.213 204.844 144.035 213.238 144.035C221.63 144.035 228.456 137.216 228.456 128.831C228.456 120.442 221.63 113.615 213.238 113.615ZM213.238 141.269C206.37 141.269 200.784 135.689 200.784 128.831C200.784 121.964 206.37 116.381 213.238 116.381C220.104 116.381 225.687 121.967 225.687 128.831C225.687 135.689 220.104 141.269 213.238 141.269ZM222.363 128.831C222.363 133.876 218.284 137.966 213.232 137.966C208.192 137.966 204.099 133.876 204.099 128.831C204.099 123.787 208.192 119.701 213.232 119.701C218.286 119.701 222.363 123.787 222.363 128.831ZM161.643 80.4867C158.756 80.4867 156.404 82.8306 156.404 85.72C156.404 88.6093 158.753 90.9532 161.643 90.9532C164.532 90.9532 166.884 88.6093 166.884 85.72C166.884 82.8306 164.532 80.4867 161.643 80.4867Z" fill="#FFEBEA" fill-opacity="0.5"/>
<path d="M100.559 238.764C136.892 219.583 148.654 202.577 145.559 154.764" stroke="#FFEBEA" stroke-width="3" stroke-linecap="round" stroke-linejoin="round"/>
<path d="M230 69C229.517 40.948 235.268 27.2668 262.364 8.58758" stroke="#FFEBEA" stroke-width="3" stroke-linecap="round" stroke-linejoin="round"/>
<path d="M311.484 159.513C282.31 154.76 261.415 149.092 254.626 115.375" stroke="#FFEBEA" stroke-width="3" stroke-linecap="round" stroke-linejoin="round"/>
<path d="M271.114 0.320068V3.65007C271.114 4.05807 271.102 4.44207 271.078 4.80207C271.066 5.15007 271.048 5.42607 271.024 5.63007H271.114C271.39 5.22207 271.768 4.88007 272.248 4.60407C272.728 4.32807 273.346 4.19007 274.102 4.19007C275.302 4.19007 276.262 4.61007 276.982 5.45007C277.714 6.27807 278.08 7.52007 278.08 9.17607C278.08 10.8321 277.714 12.0801 276.982 12.9201C276.25 13.7601 275.29 14.1801 274.102 14.1801C273.346 14.1801 272.728 14.0421 272.248 13.7661C271.768 13.4901 271.39 13.1601 271.114 12.7761H270.988L270.664 14.0001H269.53V0.320068H271.114ZM273.832 5.50407C272.812 5.50407 272.104 5.79807 271.708 6.38607C271.312 6.97407 271.114 7.88607 271.114 9.12207V9.19407C271.114 10.3821 271.306 11.2941 271.69 11.9301C272.086 12.5541 272.812 12.8661 273.868 12.8661C274.732 12.8661 275.374 12.5481 275.794 11.9121C276.226 11.2761 276.442 10.3581 276.442 9.15807C276.442 6.72207 275.572 5.50407 273.832 5.50407Z" fill="#FFEBEA"/>
<path d="M288.992 9.15807C288.992 10.7541 288.584 11.9901 287.768 12.8661C286.964 13.7421 285.872 14.1801 284.492 14.1801C283.64 14.1801 282.878 13.9881 282.206 13.6041C281.546 13.2081 281.024 12.6381 280.64 11.8941C280.256 11.1381 280.064 10.2261 280.064 9.15807C280.064 7.56207 280.466 6.33207 281.27 5.46807C282.074 4.60407 283.166 4.17207 284.546 4.17207C285.422 4.17207 286.19 4.37007 286.85 4.76607C287.522 5.15007 288.044 5.71407 288.416 6.45807C288.8 7.19007 288.992 8.09007 288.992 9.15807ZM281.702 9.15807C281.702 10.2981 281.924 11.2041 282.368 11.8761C282.824 12.5361 283.544 12.8661 284.528 12.8661C285.5 12.8661 286.214 12.5361 286.67 11.8761C287.126 11.2041 287.354 10.2981 287.354 9.15807C287.354 8.01807 287.126 7.12407 286.67 6.47607C286.214 5.82807 285.494 5.50407 284.51 5.50407C283.526 5.50407 282.812 5.82807 282.368 6.47607C281.924 7.12407 281.702 8.01807 281.702 9.15807Z" fill="#FFEBEA"/>
<path d="M299.891 9.15807C299.891 10.7541 299.483 11.9901 298.667 12.8661C297.863 13.7421 296.771 14.1801 295.391 14.1801C294.539 14.1801 293.777 13.9881 293.105 13.6041C292.445 13.2081 291.923 12.6381 291.539 11.8941C291.155 11.1381 290.963 10.2261 290.963 9.15807C290.963 7.56207 291.365 6.33207 292.169 5.46807C292.973 4.60407 294.065 4.17207 295.445 4.17207C296.321 4.17207 297.089 4.37007 297.749 4.76607C298.421 5.15007 298.943 5.71407 299.315 6.45807C299.699 7.19007 299.891 8.09007 299.891 9.15807ZM292.601 9.15807C292.601 10.2981 292.823 11.2041 293.267 11.8761C293.723 12.5361 294.443 12.8661 295.427 12.8661C296.399 12.8661 297.113 12.5361 297.569 11.8761C298.025 11.2041 298.253 10.2981 298.253 9.15807C298.253 8.01807 298.025 7.12407 297.569 6.47607C297.113 5.82807 296.393 5.50407 295.409 5.50407C294.425 5.50407 293.711 5.82807 293.267 6.47607C292.823 7.12407 292.601 8.01807 292.601 9.15807Z" fill="#FFEBEA"/>
<path d="M308.683 11.3361C308.683 12.2721 308.335 12.9801 307.639 13.4601C306.943 13.9401 306.007 14.1801 304.831 14.1801C304.159 14.1801 303.577 14.1261 303.085 14.0181C302.605 13.9101 302.179 13.7601 301.807 13.5681V12.1281C302.191 12.3201 302.653 12.5001 303.193 12.6681C303.745 12.8241 304.303 12.9021 304.867 12.9021C305.671 12.9021 306.253 12.7761 306.613 12.5241C306.973 12.2601 307.153 11.9121 307.153 11.4801C307.153 11.2401 307.087 11.0241 306.955 10.8321C306.823 10.6401 306.583 10.4481 306.235 10.2561C305.899 10.0641 305.413 9.84807 304.777 9.60807C304.153 9.36807 303.619 9.12807 303.175 8.88807C302.731 8.64807 302.389 8.36007 302.149 8.02407C301.909 7.68807 301.789 7.25607 301.789 6.72807C301.789 5.91207 302.119 5.28207 302.779 4.83807C303.451 4.39407 304.327 4.17207 305.407 4.17207C305.995 4.17207 306.541 4.23207 307.045 4.35207C307.561 4.46007 308.041 4.61607 308.485 4.82007L307.945 6.08007C307.537 5.91207 307.111 5.76807 306.667 5.64807C306.223 5.52807 305.767 5.46807 305.299 5.46807C304.651 5.46807 304.153 5.57607 303.805 5.79207C303.469 5.99607 303.301 6.27807 303.301 6.63807C303.301 6.90207 303.379 7.13007 303.535 7.32207C303.691 7.50207 303.949 7.68207 304.309 7.86207C304.681 8.03007 305.173 8.23407 305.785 8.47407C306.397 8.70207 306.919 8.93607 307.351 9.17607C307.783 9.41607 308.113 9.71007 308.341 10.0581C308.569 10.3941 308.683 10.8201 308.683 11.3361Z" fill="#FFEBEA"/>
<path d="M314.237 12.8841C314.477 12.8841 314.723 12.8661 314.975 12.8301C315.227 12.7821 315.431 12.7341 315.587 12.6861V13.8921C315.419 13.9761 315.179 14.0421 314.867 14.0901C314.555 14.1501 314.255 14.1801 313.967 14.1801C313.463 14.1801 312.995 14.0961 312.563 13.9281C312.143 13.7481 311.801 13.4421 311.537 13.0101C311.273 12.5781 311.141 11.9721 311.141 11.1921V5.57607H309.773V4.82007L311.159 4.19007L311.789 2.13807H312.725V4.35207H315.515V5.57607H312.725V11.1561C312.725 11.7441 312.863 12.1821 313.139 12.4701C313.427 12.7461 313.793 12.8841 314.237 12.8841Z" fill="#FFEBEA"/>
<path d="M321.404 151.742C321.404 151.394 321.494 151.142 321.674 150.986C321.854 150.818 322.076 150.734 322.34 150.734C322.58 150.734 322.79 150.818 322.97 150.986C323.162 151.142 323.258 151.394 323.258 151.742C323.258 152.078 323.162 152.33 322.97 152.498C322.79 152.666 322.58 152.75 322.34 152.75C322.076 152.75 321.854 152.666 321.674 152.498C321.494 152.33 321.404 152.078 321.404 151.742ZM320.396 168.32C320.096 168.32 319.832 168.296 319.604 168.248C319.376 168.212 319.178 168.164 319.01 168.104V166.826C319.19 166.874 319.376 166.916 319.568 166.952C319.76 166.988 319.97 167.006 320.198 167.006C320.582 167.006 320.9 166.898 321.152 166.682C321.404 166.478 321.53 166.082 321.53 165.494V154.352H323.114V165.44C323.114 166.34 322.898 167.042 322.466 167.546C322.034 168.062 321.344 168.32 320.396 168.32Z" fill="#FFEBEA"/>
<path d="M334.234 154.352V164H332.938L332.704 162.722H332.632C332.32 163.226 331.888 163.598 331.336 163.838C330.784 164.066 330.196 164.18 329.572 164.18C328.408 164.18 327.532 163.904 326.944 163.352C326.356 162.788 326.062 161.894 326.062 160.67V154.352H327.664V160.562C327.664 162.098 328.378 162.866 329.806 162.866C330.874 162.866 331.612 162.566 332.02 161.966C332.44 161.366 332.65 160.502 332.65 159.374V154.352H334.234Z" fill="#FFEBEA"/>
<path d="M347.881 154.172C348.973 154.172 349.789 154.454 350.329 155.018C350.869 155.57 351.139 156.47 351.139 157.718V164H349.573V157.79C349.573 156.266 348.919 155.504 347.611 155.504C346.675 155.504 346.003 155.774 345.595 156.314C345.199 156.854 345.001 157.64 345.001 158.672V164H343.435V157.79C343.435 156.266 342.775 155.504 341.455 155.504C340.483 155.504 339.811 155.804 339.439 156.404C339.067 157.004 338.881 157.868 338.881 158.996V164H337.297V154.352H338.575L338.809 155.666H338.899C339.199 155.162 339.601 154.79 340.105 154.55C340.621 154.298 341.167 154.172 341.743 154.172C343.255 154.172 344.239 154.712 344.695 155.792H344.785C345.109 155.24 345.547 154.832 346.099 154.568C346.663 154.304 347.257 154.172 347.881 154.172Z" fill="#FFEBEA"/>
<path d="M358.71 154.172C359.898 154.172 360.852 154.586 361.572 155.414C362.304 156.242 362.67 157.49 362.67 159.158C362.67 160.802 362.304 162.05 361.572 162.902C360.852 163.754 359.892 164.18 358.692 164.18C357.948 164.18 357.33 164.042 356.838 163.766C356.358 163.478 355.98 163.148 355.704 162.776H355.596C355.62 162.98 355.644 163.238 355.668 163.55C355.692 163.862 355.704 164.132 355.704 164.36V168.32H354.12V154.352H355.416L355.632 155.666H355.704C355.992 155.246 356.37 154.892 356.838 154.604C357.306 154.316 357.93 154.172 358.71 154.172ZM358.422 155.504C357.438 155.504 356.742 155.78 356.334 156.332C355.938 156.884 355.728 157.724 355.704 158.852V159.158C355.704 160.346 355.896 161.264 356.28 161.912C356.676 162.548 357.402 162.866 358.458 162.866C359.046 162.866 359.526 162.704 359.898 162.38C360.282 162.056 360.564 161.618 360.744 161.066C360.936 160.502 361.032 159.86 361.032 159.14C361.032 158.036 360.816 157.154 360.384 156.494C359.964 155.834 359.31 155.504 358.422 155.504Z" fill="#FFEBEA"/>
</svg>
