<svg width="366" height="251" viewBox="0 0 366 251" fill="none" xmlns="http://www.w3.org/2000/svg">
<path d="M11.1138 236.172C12.2058 236.172 13.0218 236.454 13.5618 237.018C14.1018 237.57 14.3718 238.47 14.3718 239.718V246H12.8058V239.79C12.8058 238.266 12.1518 237.504 10.8438 237.504C9.90779 237.504 9.23579 237.774 8.82779 238.314C8.43179 238.854 8.23379 239.64 8.23379 240.672V246H6.66779V239.79C6.66779 238.266 6.00779 237.504 4.68779 237.504C3.71579 237.504 3.04379 237.804 2.67179 238.404C2.29979 239.004 2.11379 239.868 2.11379 240.996V246H0.529785V236.352H1.80779L2.04179 237.666H2.13179C2.43179 237.162 2.83379 236.79 3.33779 236.55C3.85379 236.298 4.39979 236.172 4.97579 236.172C6.48779 236.172 7.47179 236.712 7.92779 237.792H8.01779C8.34179 237.24 8.77979 236.832 9.33179 236.568C9.89579 236.304 10.4898 236.172 11.1138 236.172Z" fill="#FFEBEA"/>
<path d="M25.7401 241.158C25.7401 242.754 25.3321 243.99 24.5161 244.866C23.7121 245.742 22.6201 246.18 21.2401 246.18C20.3881 246.18 19.626 245.988 18.9541 245.604C18.294 245.208 17.7721 244.638 17.3881 243.894C17.0041 243.138 16.8121 242.226 16.8121 241.158C16.8121 239.562 17.2141 238.332 18.0181 237.468C18.8221 236.604 19.9141 236.172 21.2941 236.172C22.1701 236.172 22.9381 236.37 23.5981 236.766C24.2701 237.15 24.7921 237.714 25.1641 238.458C25.5481 239.19 25.7401 240.09 25.7401 241.158ZM18.4501 241.158C18.4501 242.298 18.6721 243.204 19.1161 243.876C19.5721 244.536 20.2921 244.866 21.2761 244.866C22.2481 244.866 22.9621 244.536 23.4181 243.876C23.8741 243.204 24.1021 242.298 24.1021 241.158C24.1021 240.018 23.8741 239.124 23.4181 238.476C22.9621 237.828 22.2421 237.504 21.2581 237.504C20.2741 237.504 19.5601 237.828 19.1161 238.476C18.6721 239.124 18.4501 240.018 18.4501 241.158Z" fill="#FFEBEA"/>
<path d="M30.0229 246L26.3689 236.352H28.0609L30.1129 242.04C30.2089 242.304 30.3109 242.598 30.4189 242.922C30.5269 243.246 30.6229 243.558 30.7069 243.858C30.7909 244.146 30.8509 244.392 30.8869 244.596H30.9589C31.0069 244.392 31.0729 244.14 31.1569 243.84C31.2529 243.54 31.3549 243.228 31.4629 242.904C31.5829 242.58 31.6849 242.292 31.7689 242.04L33.8209 236.352H35.5129L31.8409 246H30.0229Z" fill="#FFEBEA"/>
<path d="M40.7656 236.172C41.5936 236.172 42.3016 236.352 42.8896 236.712C43.4896 237.072 43.9456 237.582 44.2576 238.242C44.5816 238.89 44.7435 239.652 44.7435 240.528V241.482H38.1376C38.1616 242.574 38.4375 243.408 38.9655 243.984C39.5055 244.548 40.2555 244.83 41.2155 244.83C41.8275 244.83 42.3676 244.776 42.8356 244.668C43.3156 244.548 43.8076 244.38 44.3116 244.164V245.55C43.8196 245.766 43.3335 245.922 42.8535 246.018C42.3736 246.126 41.8036 246.18 41.1436 246.18C40.2316 246.18 39.4216 245.994 38.7136 245.622C38.0176 245.25 37.4716 244.698 37.0756 243.966C36.6916 243.222 36.4995 242.316 36.4995 241.248C36.4995 240.192 36.6735 239.286 37.0215 238.53C37.3815 237.774 37.8796 237.192 38.5156 236.784C39.1636 236.376 39.9136 236.172 40.7656 236.172ZM40.7476 237.468C39.9916 237.468 39.3916 237.714 38.9476 238.206C38.5156 238.686 38.2575 239.358 38.1735 240.222H43.0876C43.0756 239.406 42.8836 238.746 42.5116 238.242C42.1396 237.726 41.5516 237.468 40.7476 237.468Z" fill="#FFEBEA"/>
<path d="M57.7837 236.172C58.8757 236.172 59.6917 236.454 60.2317 237.018C60.7717 237.57 61.0417 238.47 61.0417 239.718V246H59.4757V239.79C59.4757 238.266 58.8217 237.504 57.5137 237.504C56.5777 237.504 55.9057 237.774 55.4977 238.314C55.1017 238.854 54.9037 239.64 54.9037 240.672V246H53.3377V239.79C53.3377 238.266 52.6777 237.504 51.3577 237.504C50.3857 237.504 49.7137 237.804 49.3417 238.404C48.9697 239.004 48.7837 239.868 48.7837 240.996V246H47.1997V236.352H48.4777L48.7117 237.666H48.8017C49.1017 237.162 49.5037 236.79 50.0077 236.55C50.5237 236.298 51.0697 236.172 51.6457 236.172C53.1577 236.172 54.1417 236.712 54.5977 237.792H54.6877C55.0117 237.24 55.4497 236.832 56.0017 236.568C56.5657 236.304 57.1597 236.172 57.7837 236.172Z" fill="#FFEBEA"/>
<path d="M67.748 236.172C68.576 236.172 69.284 236.352 69.872 236.712C70.472 237.072 70.928 237.582 71.24 238.242C71.564 238.89 71.726 239.652 71.726 240.528V241.482H65.12C65.144 242.574 65.42 243.408 65.948 243.984C66.488 244.548 67.238 244.83 68.198 244.83C68.81 244.83 69.35 244.776 69.818 244.668C70.298 244.548 70.79 244.38 71.294 244.164V245.55C70.802 245.766 70.316 245.922 69.836 246.018C69.356 246.126 68.786 246.18 68.126 246.18C67.214 246.18 66.404 245.994 65.696 245.622C65 245.25 64.454 244.698 64.058 243.966C63.674 243.222 63.482 242.316 63.482 241.248C63.482 240.192 63.656 239.286 64.004 238.53C64.364 237.774 64.862 237.192 65.498 236.784C66.146 236.376 66.896 236.172 67.748 236.172ZM67.73 237.468C66.974 237.468 66.374 237.714 65.93 238.206C65.498 238.686 65.24 239.358 65.156 240.222H70.07C70.058 239.406 69.866 238.746 69.494 238.242C69.122 237.726 68.534 237.468 67.73 237.468Z" fill="#FFEBEA"/>
<path d="M78.8261 236.172C79.9781 236.172 80.8481 236.454 81.4361 237.018C82.0241 237.57 82.3181 238.47 82.3181 239.718V246H80.7521V239.826C80.7521 238.278 80.0321 237.504 78.5921 237.504C77.5241 237.504 76.7861 237.804 76.3781 238.404C75.9701 239.004 75.7661 239.868 75.7661 240.996V246H74.1821V236.352H75.4601L75.6941 237.666H75.7841C76.0961 237.162 76.5281 236.79 77.0801 236.55C77.6321 236.298 78.2141 236.172 78.8261 236.172Z" fill="#FFEBEA"/>
<path d="M88.5311 244.884C88.7711 244.884 89.0171 244.866 89.2691 244.83C89.5211 244.782 89.7251 244.734 89.8811 244.686V245.892C89.7131 245.976 89.4731 246.042 89.1611 246.09C88.8491 246.15 88.5491 246.18 88.2611 246.18C87.7571 246.18 87.2891 246.096 86.8571 245.928C86.4371 245.748 86.0951 245.442 85.8311 245.01C85.5671 244.578 85.4351 243.972 85.4351 243.192V237.576H84.0671V236.82L85.4531 236.19L86.0831 234.138H87.0191V236.352H89.8091V237.576H87.0191V243.156C87.0191 243.744 87.1571 244.182 87.4331 244.47C87.7211 244.746 88.0871 244.884 88.5311 244.884Z" fill="#FFEBEA"/>
<path d="M275.404 1.74189C275.404 1.39389 275.494 1.14189 275.674 0.985887C275.854 0.817887 276.076 0.733887 276.34 0.733887C276.58 0.733887 276.79 0.817887 276.97 0.985887C277.162 1.14189 277.258 1.39389 277.258 1.74189C277.258 2.07789 277.162 2.32989 276.97 2.49789C276.79 2.66589 276.58 2.74989 276.34 2.74989C276.076 2.74989 275.854 2.66589 275.674 2.49789C275.494 2.32989 275.404 2.07789 275.404 1.74189ZM274.396 18.3199C274.096 18.3199 273.832 18.2959 273.604 18.2479C273.376 18.2119 273.178 18.1639 273.01 18.1039V16.8259C273.19 16.8739 273.376 16.9159 273.568 16.9519C273.76 16.9879 273.97 17.0059 274.198 17.0059C274.582 17.0059 274.9 16.8979 275.152 16.6819C275.404 16.4779 275.53 16.0819 275.53 15.4939V4.35189H277.114V15.4399C277.114 16.3399 276.898 17.0419 276.466 17.5459C276.034 18.0619 275.344 18.3199 274.396 18.3199Z" fill="#FFEBEA"/>
<path d="M288.234 4.35189V13.9999H286.938L286.704 12.7219H286.632C286.32 13.2259 285.888 13.5979 285.336 13.8379C284.784 14.0659 284.196 14.1799 283.572 14.1799C282.408 14.1799 281.532 13.9039 280.944 13.3519C280.356 12.7879 280.062 11.8939 280.062 10.6699V4.35189H281.664V10.5619C281.664 12.0979 282.378 12.8659 283.806 12.8659C284.874 12.8659 285.612 12.5659 286.02 11.9659C286.44 11.3659 286.65 10.5019 286.65 9.37389V4.35189H288.234Z" fill="#FFEBEA"/>
<path d="M301.881 4.17189C302.973 4.17189 303.789 4.45389 304.329 5.01789C304.869 5.56989 305.139 6.46989 305.139 7.71789V13.9999H303.573V7.78989C303.573 6.26589 302.919 5.50389 301.611 5.50389C300.675 5.50389 300.003 5.77389 299.595 6.31389C299.199 6.85389 299.001 7.63989 299.001 8.67189V13.9999H297.435V7.78989C297.435 6.26589 296.775 5.50389 295.455 5.50389C294.483 5.50389 293.811 5.80389 293.439 6.40389C293.067 7.00389 292.881 7.86789 292.881 8.99589V13.9999H291.297V4.35189H292.575L292.809 5.66589H292.899C293.199 5.16189 293.601 4.78989 294.105 4.54989C294.621 4.29789 295.167 4.17189 295.743 4.17189C297.255 4.17189 298.239 4.71189 298.695 5.79189H298.785C299.109 5.23989 299.547 4.83189 300.099 4.56789C300.663 4.30389 301.257 4.17189 301.881 4.17189Z" fill="#FFEBEA"/>
<path d="M312.71 4.17189C313.898 4.17189 314.852 4.58589 315.572 5.41389C316.304 6.24189 316.67 7.48989 316.67 9.15789C316.67 10.8019 316.304 12.0499 315.572 12.9019C314.852 13.7539 313.892 14.1799 312.692 14.1799C311.948 14.1799 311.33 14.0419 310.838 13.7659C310.358 13.4779 309.98 13.1479 309.704 12.7759H309.596C309.62 12.9799 309.644 13.2379 309.668 13.5499C309.692 13.8619 309.704 14.1319 309.704 14.3599V18.3199H308.12V4.35189H309.416L309.632 5.66589H309.704C309.992 5.24589 310.37 4.89189 310.838 4.60389C311.306 4.31589 311.93 4.17189 312.71 4.17189ZM312.422 5.50389C311.438 5.50389 310.742 5.77989 310.334 6.33189C309.938 6.88389 309.728 7.72389 309.704 8.85189V9.15789C309.704 10.3459 309.896 11.2639 310.28 11.9119C310.676 12.5479 311.402 12.8659 312.458 12.8659C313.046 12.8659 313.526 12.7039 313.898 12.3799C314.282 12.0559 314.564 11.6179 314.744 11.0659C314.936 10.5019 315.032 9.85989 315.032 9.13989C315.032 8.03589 314.816 7.15389 314.384 6.49389C313.964 5.83389 313.31 5.50389 312.422 5.50389Z" fill="#FFEBEA"/>
<path d="M321.114 153.32V156.65C321.114 157.058 321.102 157.442 321.078 157.802C321.066 158.15 321.048 158.426 321.024 158.63H321.114C321.39 158.222 321.768 157.88 322.248 157.604C322.728 157.328 323.346 157.19 324.102 157.19C325.302 157.19 326.262 157.61 326.982 158.45C327.714 159.278 328.08 160.52 328.08 162.176C328.08 163.832 327.714 165.08 326.982 165.92C326.25 166.76 325.29 167.18 324.102 167.18C323.346 167.18 322.728 167.042 322.248 166.766C321.768 166.49 321.39 166.16 321.114 165.776H320.988L320.664 167H319.53V153.32H321.114ZM323.832 158.504C322.812 158.504 322.104 158.798 321.708 159.386C321.312 159.974 321.114 160.886 321.114 162.122V162.194C321.114 163.382 321.306 164.294 321.69 164.93C322.086 165.554 322.812 165.866 323.868 165.866C324.732 165.866 325.374 165.548 325.794 164.912C326.226 164.276 326.442 163.358 326.442 162.158C326.442 159.722 325.572 158.504 323.832 158.504Z" fill="#FFEBEA"/>
<path d="M338.992 162.158C338.992 163.754 338.584 164.99 337.768 165.866C336.964 166.742 335.872 167.18 334.492 167.18C333.64 167.18 332.878 166.988 332.206 166.604C331.546 166.208 331.024 165.638 330.64 164.894C330.256 164.138 330.064 163.226 330.064 162.158C330.064 160.562 330.466 159.332 331.27 158.468C332.074 157.604 333.166 157.172 334.546 157.172C335.422 157.172 336.19 157.37 336.85 157.766C337.522 158.15 338.044 158.714 338.416 159.458C338.8 160.19 338.992 161.09 338.992 162.158ZM331.702 162.158C331.702 163.298 331.924 164.204 332.368 164.876C332.824 165.536 333.544 165.866 334.528 165.866C335.5 165.866 336.214 165.536 336.67 164.876C337.126 164.204 337.354 163.298 337.354 162.158C337.354 161.018 337.126 160.124 336.67 159.476C336.214 158.828 335.494 158.504 334.51 158.504C333.526 158.504 332.812 158.828 332.368 159.476C331.924 160.124 331.702 161.018 331.702 162.158Z" fill="#FFEBEA"/>
<path d="M349.89 162.158C349.89 163.754 349.482 164.99 348.666 165.866C347.862 166.742 346.77 167.18 345.39 167.18C344.538 167.18 343.776 166.988 343.104 166.604C342.444 166.208 341.922 165.638 341.538 164.894C341.154 164.138 340.962 163.226 340.962 162.158C340.962 160.562 341.364 159.332 342.168 158.468C342.972 157.604 344.064 157.172 345.444 157.172C346.32 157.172 347.088 157.37 347.748 157.766C348.42 158.15 348.942 158.714 349.314 159.458C349.698 160.19 349.89 161.09 349.89 162.158ZM342.6 162.158C342.6 163.298 342.822 164.204 343.266 164.876C343.722 165.536 344.442 165.866 345.426 165.866C346.398 165.866 347.112 165.536 347.568 164.876C348.024 164.204 348.252 163.298 348.252 162.158C348.252 161.018 348.024 160.124 347.568 159.476C347.112 158.828 346.392 158.504 345.408 158.504C344.424 158.504 343.71 158.828 343.266 159.476C342.822 160.124 342.6 161.018 342.6 162.158Z" fill="#FFEBEA"/>
<path d="M358.683 164.336C358.683 165.272 358.335 165.98 357.639 166.46C356.943 166.94 356.007 167.18 354.831 167.18C354.159 167.18 353.577 167.126 353.085 167.018C352.605 166.91 352.179 166.76 351.807 166.568V165.128C352.191 165.32 352.653 165.5 353.193 165.668C353.745 165.824 354.303 165.902 354.867 165.902C355.671 165.902 356.253 165.776 356.613 165.524C356.973 165.26 357.153 164.912 357.153 164.48C357.153 164.24 357.087 164.024 356.955 163.832C356.823 163.64 356.583 163.448 356.235 163.256C355.899 163.064 355.413 162.848 354.777 162.608C354.153 162.368 353.619 162.128 353.175 161.888C352.731 161.648 352.389 161.36 352.149 161.024C351.909 160.688 351.789 160.256 351.789 159.728C351.789 158.912 352.119 158.282 352.779 157.838C353.451 157.394 354.327 157.172 355.407 157.172C355.995 157.172 356.541 157.232 357.045 157.352C357.561 157.46 358.041 157.616 358.485 157.82L357.945 159.08C357.537 158.912 357.111 158.768 356.667 158.648C356.223 158.528 355.767 158.468 355.299 158.468C354.651 158.468 354.153 158.576 353.805 158.792C353.469 158.996 353.301 159.278 353.301 159.638C353.301 159.902 353.379 160.13 353.535 160.322C353.691 160.502 353.949 160.682 354.309 160.862C354.681 161.03 355.173 161.234 355.785 161.474C356.397 161.702 356.919 161.936 357.351 162.176C357.783 162.416 358.113 162.71 358.341 163.058C358.569 163.394 358.683 163.82 358.683 164.336Z" fill="#FFEBEA"/>
<path d="M364.236 165.884C364.476 165.884 364.722 165.866 364.974 165.83C365.226 165.782 365.43 165.734 365.586 165.686V166.892C365.418 166.976 365.178 167.042 364.866 167.09C364.554 167.15 364.254 167.18 363.966 167.18C363.462 167.18 362.994 167.096 362.562 166.928C362.142 166.748 361.8 166.442 361.536 166.01C361.272 165.578 361.14 164.972 361.14 164.192V158.576H359.772V157.82L361.158 157.19L361.788 155.138H362.724V157.352H365.514V158.576H362.724V164.156C362.724 164.744 362.862 165.182 363.138 165.47C363.426 165.746 363.792 165.884 364.236 165.884Z" fill="#FFEBEA"/>
<path d="M171.288 51.8914C171.283 51.8942 171.269 51.9026 171.269 51.9109C171.26 51.9109 171.227 51.8914 171.227 51.8914C171.227 51.8914 171.249 51.8914 171.288 51.8914ZM302.269 156.299C302.129 155.407 287.681 66.6541 268.549 55.4464C267.997 55.1247 267.093 54.7443 265.799 54.2856C262.033 48.3615 260.723 46.8343 259.852 46.3281C255.7 43.8947 229.856 37 219.602 37C217.973 37 216.741 37.1566 215.646 37.5678L208.013 41.6682H147.987L140.169 37.4839C139.262 37.1594 138.027 37.0028 136.398 37.0028C126.147 37.0028 100.303 43.8975 96.1508 46.3309C95.2772 46.8399 93.9668 48.3671 90.2008 54.2912C88.9044 54.7471 88.0028 55.1275 87.4484 55.452C68.3217 66.6513 53.8709 155.407 53.7309 156.299C51.4909 170.541 45.5382 208.368 83.632 214.964C83.7104 214.978 83.9624 215 84.0436 215C86.558 215 90.4416 210.928 98.9816 201.711C111.794 187.888 131.156 167 145.383 167H210.614C224.841 167 244.203 187.888 257.019 201.714C265.556 210.925 269.439 214.997 271.954 215C272.035 215 272.281 214.98 272.363 214.964C310.462 208.368 304.509 170.541 302.269 156.299ZM271.945 212.231C270.307 211.974 264.329 205.526 259.051 199.832C245.911 185.656 226.053 164.228 210.617 164.228H145.386C129.949 164.228 110.095 185.651 96.9544 199.829C91.6428 205.56 85.6228 212.058 84.1136 212.242C48.6994 206.108 54.3413 170.231 56.4665 156.727C60.0589 133.886 73.7229 66.6932 88.8484 57.8323C89.1004 57.684 89.7892 57.3484 91.5588 56.7414C91.8584 56.6379 92.1132 56.4393 92.2812 56.1708C96.036 50.2411 97.2008 48.9461 97.548 48.7112C100.986 46.6973 126.209 39.7607 136.395 39.7607C137.997 39.7607 138.82 39.9369 139.041 39.9984L146.982 44.2639C147.183 44.373 147.407 44.4289 147.637 44.4289H208.36C208.59 44.4289 208.814 44.373 209.016 44.2639L216.769 40.0823C217.178 39.9341 217.998 39.7607 219.602 39.7607C229.791 39.7607 255.011 46.6973 258.441 48.7056C258.799 48.9461 259.964 50.2411 263.719 56.1708C263.887 56.4393 264.142 56.6379 264.441 56.7414C266.211 57.3456 266.9 57.684 267.152 57.8295C282.28 66.6904 295.941 133.883 299.534 156.724C301.659 170.225 307.292 206.066 271.945 212.231ZM108.496 64.7101C96.666 64.7101 87.0424 74.3263 87.0424 86.1438C87.0424 97.9612 96.6688 107.575 108.496 107.575C120.329 107.575 129.955 97.9584 129.955 86.1438C129.955 74.3263 120.329 64.7101 108.496 64.7101ZM108.496 104.811C98.192 104.811 89.8116 96.4368 89.8116 86.1466C89.8116 75.8535 98.1948 67.4792 108.496 67.4792C118.803 67.4792 127.186 75.8535 127.186 86.1466C127.186 96.4368 118.8 104.811 108.496 104.811ZM164.272 123.87C164.272 123.87 165.395 126.144 165.395 129.99C165.395 133.844 164.272 136.115 164.272 136.115H152.75V146.976C152.75 146.976 150.476 148.098 146.621 148.098C142.765 148.098 140.489 146.976 140.489 146.976V136.118H129.622C129.622 136.118 128.496 133.844 128.496 129.993C128.496 126.147 129.622 123.873 129.622 123.873H140.489V112.369C140.489 112.369 142.765 111.241 146.621 111.241C150.476 111.241 152.75 112.369 152.75 112.369V123.873H164.272V123.87ZM239.552 85.9536C239.552 90.1071 236.17 93.4888 232.009 93.4888C227.851 93.4888 224.469 90.1071 224.469 85.9536C224.469 81.7972 227.851 78.4184 232.009 78.4184C236.17 78.4184 239.552 81.7972 239.552 85.9536ZM256.988 103.373C256.988 107.527 253.605 110.909 249.447 110.909C245.287 110.909 241.907 107.527 241.907 103.373C241.907 99.2199 245.287 95.8383 249.447 95.8383C253.605 95.8383 256.988 99.2199 256.988 103.373ZM256.988 68.5309C256.988 72.6845 253.605 76.0661 249.447 76.0661C245.287 76.0661 241.907 72.6845 241.907 68.5309C241.907 64.3745 245.287 60.9929 249.447 60.9929C253.605 60.9929 256.988 64.3745 256.988 68.5309ZM274.541 85.9536C274.541 90.1071 271.159 93.4888 266.998 93.4888C262.84 93.4888 259.457 90.1071 259.457 85.9536C259.457 81.7972 262.84 78.4184 266.998 78.4184C271.159 78.4184 274.541 81.7972 274.541 85.9536ZM198.53 91.9532C201.422 91.9532 203.768 89.6065 203.768 86.72C203.768 83.8334 201.422 81.4867 198.53 81.4867C195.637 81.4867 193.288 83.8334 193.288 86.72C193.288 89.6065 195.637 91.9532 198.53 91.9532ZM108.502 70.9335C100.107 70.9335 93.278 77.7583 93.278 86.1494C93.278 94.5348 100.107 101.354 108.502 101.354C116.893 101.354 123.719 94.5348 123.719 86.1494C123.719 77.7611 116.893 70.9335 108.502 70.9335ZM108.502 98.5905C101.633 98.5905 96.0472 93.0105 96.0472 86.1522C96.0472 79.2855 101.633 73.7026 108.502 73.7026C115.367 73.7026 120.95 79.2883 120.95 86.1522C120.95 93.0105 115.364 98.5905 108.502 98.5905ZM117.627 86.1494C117.627 91.1952 113.547 95.2844 108.496 95.2844C103.456 95.2844 99.3624 91.1952 99.3624 86.1494C99.3624 81.1091 103.456 77.0227 108.496 77.0227C113.547 77.0227 117.627 81.1091 117.627 86.1494ZM213.232 108.391C201.402 108.391 191.779 118.007 191.779 129.828C191.779 141.645 201.405 151.259 213.232 151.259C225.065 151.259 234.691 141.642 234.691 129.828C234.691 118.007 225.065 108.391 213.232 108.391ZM213.232 148.489C202.928 148.489 194.548 140.118 194.548 129.825C194.548 119.529 202.931 111.155 213.232 111.155C223.539 111.155 231.922 119.529 231.922 129.825C231.922 140.118 223.539 148.489 213.232 148.489ZM213.238 114.615C204.844 114.615 198.014 121.439 198.014 129.831C198.014 138.213 204.844 145.035 213.238 145.035C221.63 145.035 228.456 138.216 228.456 129.831C228.456 121.442 221.63 114.615 213.238 114.615ZM213.238 142.269C206.37 142.269 200.784 136.689 200.784 129.831C200.784 122.964 206.37 117.381 213.238 117.381C220.104 117.381 225.687 122.967 225.687 129.831C225.687 136.689 220.104 142.269 213.238 142.269ZM222.363 129.831C222.363 134.876 218.284 138.966 213.232 138.966C208.192 138.966 204.099 134.876 204.099 129.831C204.099 124.787 208.192 120.701 213.232 120.701C218.286 120.701 222.363 124.787 222.363 129.831ZM161.643 81.4867C158.756 81.4867 156.404 83.8306 156.404 86.72C156.404 89.6093 158.753 91.9532 161.643 91.9532C164.532 91.9532 166.884 89.6093 166.884 86.72C166.884 83.8306 164.532 81.4867 161.643 81.4867Z" fill="#FFEBEA" fill-opacity="0.5"/>
<path d="M100.559 239.764C136.892 220.583 148.654 203.577 145.559 155.764" stroke="#FFEBEA" stroke-width="3" stroke-linecap="round" stroke-linejoin="round"/>
<path d="M230 70C229.517 41.948 235.268 28.2668 262.364 9.58758" stroke="#FFEBEA" stroke-width="3" stroke-linecap="round" stroke-linejoin="round"/>
<path d="M311.484 160.513C282.31 155.76 261.415 150.092 254.626 116.375" stroke="#FFEBEA" stroke-width="3" stroke-linecap="round" stroke-linejoin="round"/>
</svg>
