<svg width="564" height="73" viewBox="0 0 564 73" fill="none" xmlns="http://www.w3.org/2000/svg">
<path d="M19.656 54.72H16.848V5.904H0V3.312H36.576V5.904H19.656V54.72Z" fill="#FFEBEA"/>
<path d="M45.9827 0V18.432C45.9827 19.488 45.9587 20.448 45.9107 21.312C45.8627 22.128 45.8147 23.04 45.7667 24.048H45.9827C46.8467 21.84 48.3827 19.944 50.5907 18.36C52.7987 16.728 55.7747 15.912 59.5187 15.912C63.6947 15.912 66.9347 17.04 69.2387 19.296C71.5427 21.504 72.6947 24.984 72.6947 29.736V54.72H69.8867V29.88C69.8867 25.896 68.9747 22.992 67.1507 21.168C65.3267 19.296 62.7107 18.36 59.3027 18.36C55.1267 18.36 51.8627 19.608 49.5107 22.104C47.1587 24.552 45.9827 28.296 45.9827 33.336V54.72H43.1747V0H45.9827Z" fill="#FFEBEA"/>
<path d="M99.4089 15.84C102.673 15.84 105.337 16.632 107.401 18.216C109.513 19.752 111.073 21.864 112.081 24.552C113.137 27.192 113.665 30.192 113.665 33.552V35.784H85.7289C85.6809 41.304 86.9049 45.552 89.4009 48.528C91.9449 51.456 95.5689 52.92 100.273 52.92C102.625 52.92 104.641 52.752 106.321 52.416C108.049 52.032 109.993 51.336 112.153 50.328V53.064C110.281 53.88 108.409 54.48 106.537 54.864C104.713 55.248 102.601 55.44 100.201 55.44C96.3129 55.44 93.0729 54.624 90.4809 52.992C87.9369 51.36 86.0169 49.08 84.7209 46.152C83.4729 43.224 82.8489 39.84 82.8489 36C82.8489 32.304 83.4729 28.944 84.7209 25.92C85.9689 22.848 87.8169 20.4 90.2649 18.576C92.7129 16.752 95.7609 15.84 99.4089 15.84ZM99.4089 18.36C95.5689 18.36 92.4489 19.656 90.0489 22.248C87.6489 24.792 86.2329 28.488 85.8009 33.336H110.785C110.785 28.872 109.849 25.272 107.977 22.536C106.105 19.752 103.249 18.36 99.4089 18.36Z" fill="#FFEBEA"/>
<path d="M138.787 15.984C139.843 15.984 140.827 16.056 141.739 16.2C142.651 16.296 143.515 16.464 144.331 16.704L143.827 19.296C142.963 19.056 142.123 18.888 141.307 18.792C140.539 18.648 139.651 18.576 138.643 18.576C134.851 18.576 131.971 19.92 130.003 22.608C128.083 25.296 127.123 28.92 127.123 33.48V54.72H124.387V16.56H126.835L127.051 23.832H127.267C128.035 21.624 129.379 19.776 131.299 18.288C133.267 16.752 135.763 15.984 138.787 15.984Z" fill="#FFEBEA"/>
<path d="M190.542 15.84C193.998 15.84 196.782 16.896 198.894 19.008C201.054 21.12 202.134 24.408 202.134 28.872V54.72H199.398V29.016C199.398 25.32 198.534 22.632 196.806 20.952C195.126 19.224 192.966 18.36 190.326 18.36C186.678 18.36 183.774 19.416 181.614 21.528C179.454 23.64 178.374 27.048 178.374 31.752V54.72H175.638V29.016C175.638 25.32 174.774 22.632 173.046 20.952C171.366 19.224 169.206 18.36 166.566 18.36C163.11 18.36 160.254 19.44 157.998 21.6C155.79 23.76 154.686 27.24 154.686 32.04V54.72H151.878V16.56H154.11L154.542 23.184H154.758C155.286 21.936 156.054 20.76 157.062 19.656C158.118 18.552 159.438 17.64 161.022 16.92C162.606 16.2 164.526 15.84 166.782 15.84C169.47 15.84 171.75 16.488 173.622 17.784C175.542 19.08 176.862 20.976 177.582 23.472H177.726C178.734 21.12 180.318 19.272 182.478 17.928C184.638 16.536 187.326 15.84 190.542 15.84Z" fill="#FFEBEA"/>
<path d="M227.416 15.912C231.496 15.912 234.544 16.992 236.56 19.152C238.624 21.264 239.656 24.648 239.656 29.304V54.72H237.424L236.92 47.664H236.776C235.624 49.872 233.992 51.72 231.88 53.208C229.816 54.696 226.888 55.44 223.096 55.44C219.352 55.44 216.472 54.528 214.456 52.704C212.488 50.88 211.504 48.36 211.504 45.144C211.504 41.352 213.064 38.496 216.184 36.576C219.352 34.608 223.84 33.48 229.648 33.192L236.848 32.76V29.88C236.848 25.752 236.056 22.824 234.472 21.096C232.888 19.32 230.512 18.432 227.344 18.432C223.648 18.432 219.88 19.392 216.04 21.312L215.176 18.864C217 18 218.944 17.304 221.008 16.776C223.072 16.2 225.208 15.912 227.416 15.912ZM236.848 35.136L229.936 35.424C225.04 35.664 221.224 36.552 218.488 38.088C215.752 39.624 214.384 41.976 214.384 45.144C214.384 47.64 215.176 49.584 216.76 50.976C218.344 52.32 220.552 52.992 223.384 52.992C227.896 52.992 231.256 51.72 233.464 49.176C235.672 46.584 236.8 43.176 236.848 38.952V35.136Z" fill="#FFEBEA"/>
<path d="M254.811 54.72H252.075V0H254.811V54.72Z" fill="#FFEBEA"/>
<path d="M299.275 3.312C305.275 3.312 309.835 4.32 312.955 6.336C316.075 8.304 317.635 11.904 317.635 17.136C317.635 21.024 316.603 24.12 314.539 26.424C312.475 28.68 309.715 30.288 306.259 31.248L320.371 54.72H316.987L303.451 32.04H290.059V54.72H287.251V3.312H299.275ZM298.915 5.904H290.059V29.52H300.931C305.107 29.52 308.443 28.464 310.939 26.352C313.435 24.192 314.683 21.144 314.683 17.208C314.683 12.888 313.387 9.936 310.795 8.352C308.203 6.72 304.243 5.904 298.915 5.904Z" fill="#FFEBEA"/>
<path d="M357.519 16.56V54.72H355.215L354.783 47.304H354.639C353.727 49.464 352.167 51.36 349.959 52.992C347.799 54.624 344.847 55.44 341.103 55.44C332.319 55.44 327.927 50.808 327.927 41.544V16.56H330.735V41.256C330.735 45.288 331.647 48.24 333.471 50.112C335.295 51.984 337.911 52.92 341.319 52.92C345.495 52.92 348.759 51.696 351.111 49.248C353.511 46.8 354.711 43.056 354.711 38.016V16.56H357.519Z" fill="#FFEBEA"/>
<path d="M386.753 15.84C390.977 15.84 394.217 16.968 396.473 19.224C398.777 21.48 399.929 24.984 399.929 29.736V54.72H397.121V29.88C397.121 25.896 396.209 22.992 394.385 21.168C392.561 19.296 389.945 18.36 386.537 18.36C382.361 18.36 379.097 19.608 376.745 22.104C374.393 24.552 373.217 28.296 373.217 33.336V54.72H370.409V16.56H372.641L373.073 24.048H373.289C374.201 21.888 375.737 19.992 377.897 18.36C380.105 16.68 383.057 15.84 386.753 15.84Z" fill="#FFEBEA"/>
<path d="M425.275 15.912C429.355 15.912 432.403 16.992 434.419 19.152C436.483 21.264 437.515 24.648 437.515 29.304V54.72H435.283L434.779 47.664H434.635C433.483 49.872 431.851 51.72 429.739 53.208C427.675 54.696 424.747 55.44 420.955 55.44C417.211 55.44 414.331 54.528 412.315 52.704C410.347 50.88 409.363 48.36 409.363 45.144C409.363 41.352 410.923 38.496 414.043 36.576C417.211 34.608 421.699 33.48 427.507 33.192L434.707 32.76V29.88C434.707 25.752 433.915 22.824 432.331 21.096C430.747 19.32 428.371 18.432 425.203 18.432C421.507 18.432 417.739 19.392 413.899 21.312L413.035 18.864C414.859 18 416.803 17.304 418.867 16.776C420.931 16.2 423.067 15.912 425.275 15.912ZM434.707 35.136L427.795 35.424C422.899 35.664 419.083 36.552 416.347 38.088C413.611 39.624 412.243 41.976 412.243 45.144C412.243 47.64 413.035 49.584 414.619 50.976C416.203 52.32 418.411 52.992 421.243 52.992C425.755 52.992 429.115 51.72 431.323 49.176C433.531 46.584 434.659 43.176 434.707 38.952V35.136Z" fill="#FFEBEA"/>
<path d="M480.102 54.792L471.534 28.008C471.102 26.616 470.718 25.344 470.382 24.192C470.046 23.04 469.71 21.84 469.374 20.592H469.158C468.87 21.84 468.534 23.064 468.15 24.264C467.814 25.464 467.43 26.712 466.998 28.008L458.214 54.792H455.478L444.534 16.632H447.558L454.614 42.12C455.238 44.28 455.694 46.032 455.982 47.376C456.318 48.672 456.606 49.896 456.846 51.048H457.062C457.35 49.896 457.662 48.672 457.998 47.376C458.334 46.08 458.838 44.4 459.51 42.336L468.078 16.632H470.67L478.878 42.264C479.406 44.088 479.886 45.72 480.318 47.16C480.75 48.552 481.086 49.848 481.326 51.048H481.542C481.686 49.896 481.926 48.648 482.262 47.304C482.598 45.912 483.03 44.184 483.558 42.12L490.398 16.632H493.206L482.91 54.792H480.102Z" fill="#FFEBEA"/>
<path d="M513.658 15.912C517.738 15.912 520.786 16.992 522.802 19.152C524.866 21.264 525.898 24.648 525.898 29.304V54.72H523.666L523.162 47.664H523.018C521.866 49.872 520.234 51.72 518.122 53.208C516.058 54.696 513.13 55.44 509.338 55.44C505.594 55.44 502.714 54.528 500.698 52.704C498.73 50.88 497.746 48.36 497.746 45.144C497.746 41.352 499.306 38.496 502.426 36.576C505.594 34.608 510.082 33.48 515.89 33.192L523.09 32.76V29.88C523.09 25.752 522.298 22.824 520.714 21.096C519.13 19.32 516.754 18.432 513.586 18.432C509.89 18.432 506.122 19.392 502.282 21.312L501.418 18.864C503.242 18 505.186 17.304 507.25 16.776C509.314 16.2 511.45 15.912 513.658 15.912ZM523.09 35.136L516.178 35.424C511.282 35.664 507.466 36.552 504.73 38.088C501.994 39.624 500.626 41.976 500.626 45.144C500.626 47.64 501.418 49.584 503.002 50.976C504.586 52.32 506.794 52.992 509.626 52.992C514.138 52.992 517.498 51.72 519.706 49.176C521.914 46.584 523.042 43.176 523.09 38.952V35.136Z" fill="#FFEBEA"/>
<path d="M531.837 16.56H534.789L544.365 41.472C545.181 43.68 545.877 45.6 546.453 47.232C547.029 48.864 547.509 50.232 547.893 51.336H548.037C548.373 50.28 548.829 48.936 549.405 47.304C549.981 45.672 550.677 43.8 551.493 41.688L560.997 16.56H563.949L546.309 62.424C545.061 65.64 543.645 68.064 542.061 69.696C540.525 71.328 538.437 72.144 535.797 72.144C534.357 72.144 532.965 71.928 531.621 71.496V68.976C532.293 69.168 532.917 69.336 533.493 69.48C534.117 69.624 534.813 69.696 535.581 69.696C537.501 69.696 539.061 69.072 540.261 67.824C541.509 66.576 542.685 64.512 543.789 61.632L546.525 54.432L531.837 16.56Z" fill="#FFEBEA"/>
<rect x="16.7119" y="68.72" width="509" height="3" fill="#FFEBEA"/>
</svg>
