<svg width="527" height="73" viewBox="0 0 527 73" fill="none" xmlns="http://www.w3.org/2000/svg">
<rect x="16.7119" y="68.72" width="472" height="3" fill="#FFEBEA"/>
<path d="M19.656 54.72H16.848V5.904H0V3.312H36.576V5.904H19.656V54.72Z" fill="#FFEBEA"/>
<path d="M45.9827 0V18.432C45.9827 19.488 45.9587 20.448 45.9107 21.312C45.8627 22.128 45.8147 23.04 45.7667 24.048H45.9827C46.8467 21.84 48.3827 19.944 50.5907 18.36C52.7987 16.728 55.7747 15.912 59.5187 15.912C63.6947 15.912 66.9347 17.04 69.2387 19.296C71.5427 21.504 72.6947 24.984 72.6947 29.736V54.72H69.8867V29.88C69.8867 25.896 68.9747 22.992 67.1507 21.168C65.3267 19.296 62.7107 18.36 59.3027 18.36C55.1267 18.36 51.8627 19.608 49.5107 22.104C47.1587 24.552 45.9827 28.296 45.9827 33.336V54.72H43.1747V0H45.9827Z" fill="#FFEBEA"/>
<path d="M99.4089 15.84C102.673 15.84 105.337 16.632 107.401 18.216C109.513 19.752 111.073 21.864 112.081 24.552C113.137 27.192 113.665 30.192 113.665 33.552V35.784H85.7289C85.6809 41.304 86.9049 45.552 89.4009 48.528C91.9449 51.456 95.5689 52.92 100.273 52.92C102.625 52.92 104.641 52.752 106.321 52.416C108.049 52.032 109.993 51.336 112.153 50.328V53.064C110.281 53.88 108.409 54.48 106.537 54.864C104.713 55.248 102.601 55.44 100.201 55.44C96.3129 55.44 93.0729 54.624 90.4809 52.992C87.9369 51.36 86.0169 49.08 84.7209 46.152C83.4729 43.224 82.8489 39.84 82.8489 36C82.8489 32.304 83.4729 28.944 84.7209 25.92C85.9689 22.848 87.8169 20.4 90.2649 18.576C92.7129 16.752 95.7609 15.84 99.4089 15.84ZM99.4089 18.36C95.5689 18.36 92.4489 19.656 90.0489 22.248C87.6489 24.792 86.2329 28.488 85.8009 33.336H110.785C110.785 28.872 109.849 25.272 107.977 22.536C106.105 19.752 103.249 18.36 99.4089 18.36Z" fill="#FFEBEA"/>
<path d="M138.787 15.984C139.843 15.984 140.827 16.056 141.739 16.2C142.651 16.296 143.515 16.464 144.331 16.704L143.827 19.296C142.963 19.056 142.123 18.888 141.307 18.792C140.539 18.648 139.651 18.576 138.643 18.576C134.851 18.576 131.971 19.92 130.003 22.608C128.083 25.296 127.123 28.92 127.123 33.48V54.72H124.387V16.56H126.835L127.051 23.832H127.267C128.035 21.624 129.379 19.776 131.299 18.288C133.267 16.752 135.763 15.984 138.787 15.984Z" fill="#FFEBEA"/>
<path d="M190.542 15.84C193.998 15.84 196.782 16.896 198.894 19.008C201.054 21.12 202.134 24.408 202.134 28.872V54.72H199.398V29.016C199.398 25.32 198.534 22.632 196.806 20.952C195.126 19.224 192.966 18.36 190.326 18.36C186.678 18.36 183.774 19.416 181.614 21.528C179.454 23.64 178.374 27.048 178.374 31.752V54.72H175.638V29.016C175.638 25.32 174.774 22.632 173.046 20.952C171.366 19.224 169.206 18.36 166.566 18.36C163.11 18.36 160.254 19.44 157.998 21.6C155.79 23.76 154.686 27.24 154.686 32.04V54.72H151.878V16.56H154.11L154.542 23.184H154.758C155.286 21.936 156.054 20.76 157.062 19.656C158.118 18.552 159.438 17.64 161.022 16.92C162.606 16.2 164.526 15.84 166.782 15.84C169.47 15.84 171.75 16.488 173.622 17.784C175.542 19.08 176.862 20.976 177.582 23.472H177.726C178.734 21.12 180.318 19.272 182.478 17.928C184.638 16.536 187.326 15.84 190.542 15.84Z" fill="#FFEBEA"/>
<path d="M227.416 15.912C231.496 15.912 234.544 16.992 236.56 19.152C238.624 21.264 239.656 24.648 239.656 29.304V54.72H237.424L236.92 47.664H236.776C235.624 49.872 233.992 51.72 231.88 53.208C229.816 54.696 226.888 55.44 223.096 55.44C219.352 55.44 216.472 54.528 214.456 52.704C212.488 50.88 211.504 48.36 211.504 45.144C211.504 41.352 213.064 38.496 216.184 36.576C219.352 34.608 223.84 33.48 229.648 33.192L236.848 32.76V29.88C236.848 25.752 236.056 22.824 234.472 21.096C232.888 19.32 230.512 18.432 227.344 18.432C223.648 18.432 219.88 19.392 216.04 21.312L215.176 18.864C217 18 218.944 17.304 221.008 16.776C223.072 16.2 225.208 15.912 227.416 15.912ZM236.848 35.136L229.936 35.424C225.04 35.664 221.224 36.552 218.488 38.088C215.752 39.624 214.384 41.976 214.384 45.144C214.384 47.64 215.176 49.584 216.76 50.976C218.344 52.32 220.552 52.992 223.384 52.992C227.896 52.992 231.256 51.72 233.464 49.176C235.672 46.584 236.8 43.176 236.848 38.952V35.136Z" fill="#FFEBEA"/>
<path d="M254.811 54.72H252.075V0H254.811V54.72Z" fill="#FFEBEA"/>
<path d="M299.275 3.312C305.275 3.312 309.835 4.32 312.955 6.336C316.075 8.304 317.635 11.904 317.635 17.136C317.635 21.024 316.603 24.12 314.539 26.424C312.475 28.68 309.715 30.288 306.259 31.248L320.371 54.72H316.987L303.451 32.04H290.059V54.72H287.251V3.312H299.275ZM298.915 5.904H290.059V29.52H300.931C305.107 29.52 308.443 28.464 310.939 26.352C313.435 24.192 314.683 21.144 314.683 17.208C314.683 12.888 313.387 9.936 310.795 8.352C308.203 6.72 304.243 5.904 298.915 5.904Z" fill="#FFEBEA"/>
<path d="M357.519 16.56V54.72H355.215L354.783 47.304H354.639C353.727 49.464 352.167 51.36 349.959 52.992C347.799 54.624 344.847 55.44 341.103 55.44C332.319 55.44 327.927 50.808 327.927 41.544V16.56H330.735V41.256C330.735 45.288 331.647 48.24 333.471 50.112C335.295 51.984 337.911 52.92 341.319 52.92C345.495 52.92 348.759 51.696 351.111 49.248C353.511 46.8 354.711 43.056 354.711 38.016V16.56H357.519Z" fill="#FFEBEA"/>
<path d="M386.753 15.84C390.977 15.84 394.217 16.968 396.473 19.224C398.777 21.48 399.929 24.984 399.929 29.736V54.72H397.121V29.88C397.121 25.896 396.209 22.992 394.385 21.168C392.561 19.296 389.945 18.36 386.537 18.36C382.361 18.36 379.097 19.608 376.745 22.104C374.393 24.552 373.217 28.296 373.217 33.336V54.72H370.409V16.56H372.641L373.073 24.048H373.289C374.201 21.888 375.737 19.992 377.897 18.36C380.105 16.68 383.057 15.84 386.753 15.84Z" fill="#FFEBEA"/>
<path d="M442.555 54.792L433.987 28.008C433.555 26.616 433.171 25.344 432.835 24.192C432.499 23.04 432.163 21.84 431.827 20.592H431.611C431.323 21.84 430.987 23.064 430.603 24.264C430.267 25.464 429.883 26.712 429.451 28.008L420.667 54.792H417.931L406.987 16.632H410.011L417.067 42.12C417.691 44.28 418.147 46.032 418.435 47.376C418.771 48.672 419.059 49.896 419.299 51.048H419.515C419.803 49.896 420.115 48.672 420.451 47.376C420.787 46.08 421.291 44.4 421.963 42.336L430.531 16.632H433.123L441.331 42.264C441.859 44.088 442.339 45.72 442.771 47.16C443.203 48.552 443.539 49.848 443.779 51.048H443.995C444.139 49.896 444.379 48.648 444.715 47.304C445.051 45.912 445.483 44.184 446.011 42.12L452.851 16.632H455.659L445.363 54.792H442.555Z" fill="#FFEBEA"/>
<path d="M476.111 15.912C480.191 15.912 483.239 16.992 485.255 19.152C487.319 21.264 488.351 24.648 488.351 29.304V54.72H486.119L485.615 47.664H485.471C484.319 49.872 482.687 51.72 480.575 53.208C478.511 54.696 475.583 55.44 471.791 55.44C468.047 55.44 465.167 54.528 463.151 52.704C461.183 50.88 460.199 48.36 460.199 45.144C460.199 41.352 461.759 38.496 464.879 36.576C468.047 34.608 472.535 33.48 478.343 33.192L485.543 32.76V29.88C485.543 25.752 484.751 22.824 483.167 21.096C481.583 19.32 479.207 18.432 476.039 18.432C472.343 18.432 468.575 19.392 464.735 21.312L463.871 18.864C465.695 18 467.639 17.304 469.703 16.776C471.767 16.2 473.903 15.912 476.111 15.912ZM485.543 35.136L478.631 35.424C473.735 35.664 469.919 36.552 467.183 38.088C464.447 39.624 463.079 41.976 463.079 45.144C463.079 47.64 463.871 49.584 465.455 50.976C467.039 52.32 469.247 52.992 472.079 52.992C476.591 52.992 479.951 51.72 482.159 49.176C484.367 46.584 485.495 43.176 485.543 38.952V35.136Z" fill="#FFEBEA"/>
<path d="M494.29 16.56H497.242L506.818 41.472C507.634 43.68 508.33 45.6 508.906 47.232C509.482 48.864 509.962 50.232 510.346 51.336H510.49C510.826 50.28 511.282 48.936 511.858 47.304C512.434 45.672 513.13 43.8 513.946 41.688L523.45 16.56H526.402L508.762 62.424C507.514 65.64 506.098 68.064 504.514 69.696C502.978 71.328 500.89 72.144 498.25 72.144C496.81 72.144 495.418 71.928 494.074 71.496V68.976C494.746 69.168 495.37 69.336 495.946 69.48C496.57 69.624 497.266 69.696 498.034 69.696C499.954 69.696 501.514 69.072 502.714 67.824C503.962 66.576 505.138 64.512 506.242 61.632L508.978 54.432L494.29 16.56Z" fill="#FFEBEA"/>
</svg>
