<svg width="407" height="60" viewBox="0 0 407 60" fill="none" xmlns="http://www.w3.org/2000/svg">
<path d="M34 30.5999H55.36V56.2799C52.6934 57.4533 49.8134 58.3333 46.72 58.9199C43.68 59.5066 40.48 59.7999 37.12 59.7999C27.9467 59.7999 20.96 57.2666 16.16 52.1999C11.4134 47.0799 9.04004 39.8799 9.04004 30.5999C9.04004 24.8933 10.1867 19.8266 12.48 15.3999C14.7734 10.9199 18.08 7.39992 22.4 4.83992C26.7734 2.22659 31.9734 0.919922 38 0.919922C41.0934 0.919922 44.0267 1.21325 46.8 1.79992C49.5734 2.38659 52.2134 3.26659 54.72 4.43992L53.36 7.31992C50.8 6.09325 48.2134 5.21325 45.6 4.67992C43.04 4.09325 40.48 3.79992 37.92 3.79992C32.5867 3.79992 28 4.94659 24.16 7.23992C20.32 9.53325 17.36 12.7066 15.28 16.7599C13.2534 20.7599 12.24 25.3466 12.24 30.5199C12.24 39.5866 14.48 46.2533 18.96 50.5199C23.44 54.7866 29.6534 56.9199 37.6 56.9199C40.5867 56.9199 43.28 56.7066 45.68 56.2799C48.08 55.7999 50.2667 55.1866 52.24 54.4399V33.4799H34V30.5999Z" fill="#FFEBEA"/>
<path d="M83.2544 15.8799C87.7877 15.8799 91.1744 17.0799 93.4144 19.4799C95.7077 21.8266 96.8544 25.5866 96.8544 30.7599V58.9999H94.3744L93.8144 51.1599H93.6544C92.3744 53.6133 90.5611 55.6666 88.2144 57.3199C85.9211 58.9733 82.6677 59.7999 78.4544 59.7999C74.2944 59.7999 71.0944 58.7866 68.8544 56.7599C66.6677 54.7333 65.5744 51.9333 65.5744 48.3599C65.5744 44.1466 67.3077 40.9733 70.7744 38.8399C74.2944 36.6533 79.2811 35.3999 85.7344 35.0799L93.7344 34.5999V31.3999C93.7344 26.8133 92.8544 23.5599 91.0944 21.6399C89.3344 19.6666 86.6944 18.6799 83.1744 18.6799C79.0677 18.6799 74.8811 19.7466 70.6144 21.8799L69.6544 19.1599C71.6811 18.1999 73.8411 17.4266 76.1344 16.8399C78.4277 16.1999 80.8011 15.8799 83.2544 15.8799ZM93.7344 37.2399L86.0544 37.5599C80.6144 37.8266 76.3744 38.8133 73.3344 40.5199C70.2944 42.2266 68.7744 44.8399 68.7744 48.3599C68.7744 51.1333 69.6544 53.2933 71.4144 54.8399C73.1744 56.3333 75.6277 57.0799 78.7744 57.0799C83.7877 57.0799 87.5211 55.6666 89.9744 52.8399C92.4278 49.9599 93.6811 46.1733 93.7344 41.4799V37.2399Z" fill="#FFEBEA"/>
<path d="M153.533 15.7999C157.373 15.7999 160.467 16.9733 162.813 19.3199C165.213 21.6666 166.413 25.3199 166.413 30.2799V58.9999H163.373V30.4399C163.373 26.3333 162.413 23.3466 160.493 21.4799C158.626 19.5599 156.227 18.5999 153.293 18.5999C149.24 18.5999 146.013 19.7733 143.613 22.1199C141.213 24.4666 140.013 28.2533 140.013 33.4799V58.9999H136.973V30.4399C136.973 26.3333 136.013 23.3466 134.093 21.4799C132.226 19.5599 129.826 18.5999 126.893 18.5999C123.053 18.5999 119.88 19.7999 117.373 22.1999C114.92 24.5999 113.693 28.4666 113.693 33.7999V58.9999H110.573V16.5999H113.053L113.533 23.9599H113.773C114.36 22.5733 115.213 21.2666 116.333 20.0399C117.507 18.8133 118.973 17.7999 120.733 16.9999C122.493 16.1999 124.626 15.7999 127.133 15.7999C130.12 15.7999 132.653 16.5199 134.733 17.9599C136.867 19.3999 138.333 21.5066 139.133 24.2799H139.293C140.413 21.6666 142.173 19.6133 144.573 18.1199C146.973 16.5733 149.96 15.7999 153.533 15.7999Z" fill="#FFEBEA"/>
<path d="M196.024 15.7999C199.651 15.7999 202.611 16.6799 204.904 18.4399C207.251 20.1466 208.984 22.4933 210.104 25.4799C211.278 28.4133 211.864 31.7466 211.864 35.4799V37.9599H180.824C180.771 44.0933 182.131 48.8133 184.904 52.1199C187.731 55.3733 191.758 56.9999 196.984 56.9999C199.598 56.9999 201.838 56.8133 203.704 56.4399C205.624 56.0133 207.784 55.2399 210.184 54.1199V57.1599C208.104 58.0666 206.024 58.7333 203.944 59.1599C201.918 59.5866 199.571 59.7999 196.904 59.7999C192.584 59.7999 188.984 58.8933 186.104 57.0799C183.278 55.2666 181.144 52.7333 179.704 49.4799C178.318 46.2266 177.624 42.4666 177.624 38.1999C177.624 34.0933 178.318 30.3599 179.704 26.9999C181.091 23.5866 183.144 20.8666 185.864 18.8399C188.584 16.8133 191.971 15.7999 196.024 15.7999ZM196.024 18.5999C191.758 18.5999 188.291 20.0399 185.624 22.9199C182.958 25.7466 181.384 29.8533 180.904 35.2399H208.664C208.664 30.2799 207.624 26.2799 205.544 23.2399C203.464 20.1466 200.291 18.5999 196.024 18.5999Z" fill="#FFEBEA"/>
<path d="M293.039 30.3599C293.039 36.1199 292.106 41.2133 290.239 45.6399C288.373 50.0666 285.546 53.5333 281.759 56.0399C278.026 58.5466 273.333 59.7999 267.679 59.7999C262.079 59.7999 257.386 58.5466 253.599 56.0399C249.866 53.5333 247.066 50.0666 245.199 45.6399C243.333 41.2133 242.399 36.0933 242.399 30.2799C242.399 24.5199 243.359 19.4533 245.279 15.0799C247.253 10.6533 250.159 7.21325 253.999 4.75992C257.839 2.25325 262.533 0.999921 268.079 0.999921C276.079 0.999921 282.239 3.61325 286.559 8.83992C290.879 14.0133 293.039 21.1866 293.039 30.3599ZM245.599 30.2799C245.599 35.5066 246.399 40.1199 247.999 44.1199C249.599 48.1199 252.026 51.2666 255.279 53.5599C258.586 55.7999 262.746 56.9199 267.759 56.9199C272.773 56.9199 276.906 55.7999 280.159 53.5599C283.413 51.3199 285.813 48.2266 287.359 44.2799C288.959 40.2799 289.759 35.6399 289.759 30.3599C289.759 21.9866 287.893 15.4799 284.159 10.8399C280.479 6.19992 275.119 3.87992 268.079 3.87992C263.013 3.87992 258.826 4.99992 255.519 7.23992C252.213 9.47992 249.733 12.5999 248.079 16.5999C246.426 20.5466 245.599 25.1066 245.599 30.2799Z" fill="#FFEBEA"/>
<path d="M314.383 58.9999L298.063 16.5999H301.343L312.703 46.5999C313.396 48.3599 313.983 49.9599 314.463 51.3999C314.943 52.7866 315.396 54.1199 315.823 55.3999H315.983C316.409 54.1199 316.863 52.7866 317.343 51.3999C317.823 49.9599 318.409 48.3599 319.103 46.5999L330.463 16.5999H333.743L317.423 58.9999H314.383Z" fill="#FFEBEA"/>
<path d="M356.806 15.7999C360.432 15.7999 363.392 16.6799 365.686 18.4399C368.032 20.1466 369.766 22.4933 370.886 25.4799C372.059 28.4133 372.646 31.7466 372.646 35.4799V37.9599H341.606C341.552 44.0933 342.912 48.8133 345.686 52.1199C348.512 55.3733 352.539 56.9999 357.766 56.9999C360.379 56.9999 362.619 56.8133 364.486 56.4399C366.406 56.0133 368.566 55.2399 370.966 54.1199V57.1599C368.886 58.0666 366.806 58.7333 364.726 59.1599C362.699 59.5866 360.352 59.7999 357.686 59.7999C353.366 59.7999 349.766 58.8933 346.886 57.0799C344.059 55.2666 341.926 52.7333 340.486 49.4799C339.099 46.2266 338.406 42.4666 338.406 38.1999C338.406 34.0933 339.099 30.3599 340.486 26.9999C341.872 23.5866 343.926 20.8666 346.646 18.8399C349.366 16.8133 352.752 15.7999 356.806 15.7999ZM356.806 18.5999C352.539 18.5999 349.072 20.0399 346.406 22.9199C343.739 25.7466 342.166 29.8533 341.686 35.2399H369.446C369.446 30.2799 368.406 26.2799 366.326 23.2399C364.246 20.1466 361.072 18.5999 356.806 18.5999Z" fill="#FFEBEA"/>
<path d="M400.559 15.9599C401.733 15.9599 402.826 16.0399 403.839 16.1999C404.853 16.3066 405.813 16.4933 406.719 16.7599L406.159 19.6399C405.199 19.3733 404.266 19.1866 403.359 19.0799C402.506 18.9199 401.519 18.8399 400.399 18.8399C396.186 18.8399 392.986 20.3333 390.799 23.3199C388.666 26.3066 387.599 30.3333 387.599 35.3999V58.9999H384.559V16.5999H387.279L387.519 24.6799H387.759C388.613 22.2266 390.106 20.1733 392.239 18.5199C394.426 16.8133 397.199 15.9599 400.559 15.9599Z" fill="#FFEBEA"/>
<line x1="0.223558" y1="16.5168" x2="217.766" y2="49.3052" stroke="#FFEBEA" stroke-width="3"/>
</svg>
