<svg width="322" height="94" viewBox="0 0 322 94" fill="none" xmlns="http://www.w3.org/2000/svg">
<path d="M132 1.5H146C149.59 1.5 152.5 4.41015 152.5 8V22C152.5 25.5899 149.59 28.5 146 28.5H132C128.41 28.5 125.5 25.5899 125.5 22V8C125.5 4.41015 128.41 1.5 132 1.5ZM97 37H111C114.59 37 117.5 39.9101 117.5 43.5V57.5C117.5 61.0899 114.59 64 111 64H97C93.4101 64 90.5 61.0899 90.5 57.5V43.5C90.5 39.9101 93.4101 37 97 37ZM132 37H146C149.59 37 152.5 39.9101 152.5 43.5V57.5C152.5 61.0899 149.59 64 146 64H132C128.41 64 125.5 61.0899 125.5 57.5V43.5C125.5 39.9101 128.41 37 132 37ZM168.5 64C164.91 64 162 61.0899 162 57.5V43.5C162 39.9101 164.91 37 168.5 37H182.5C186.09 37 189 39.9101 189 43.5V57.5C189 61.0899 186.09 64 182.5 64H168.5Z" stroke="#FFEBEA" stroke-width="3"/>
<rect x="201.5" y="37.5" width="119" height="27" rx="6.5" stroke="#FFEBEA" stroke-width="3"/>
<path d="M106.114 79.172C107.206 79.172 108.022 79.454 108.562 80.018C109.102 80.57 109.372 81.47 109.372 82.718V89H107.806V82.79C107.806 81.266 107.152 80.504 105.844 80.504C104.908 80.504 104.236 80.774 103.828 81.314C103.432 81.854 103.234 82.64 103.234 83.672V89H101.668V82.79C101.668 81.266 101.008 80.504 99.6883 80.504C98.7163 80.504 98.0443 80.804 97.6723 81.404C97.3003 82.004 97.1143 82.868 97.1143 83.996V89H95.5303V79.352H96.8083L97.0423 80.666H97.1323C97.4323 80.162 97.8343 79.79 98.3383 79.55C98.8543 79.298 99.4003 79.172 99.9763 79.172C101.488 79.172 102.472 79.712 102.928 80.792H103.018C103.342 80.24 103.78 79.832 104.332 79.568C104.896 79.304 105.49 79.172 106.114 79.172Z" fill="#FFEBEA"/>
<path d="M120.741 84.158C120.741 85.754 120.333 86.99 119.517 87.866C118.713 88.742 117.621 89.18 116.241 89.18C115.389 89.18 114.627 88.988 113.955 88.604C113.295 88.208 112.773 87.638 112.389 86.894C112.005 86.138 111.813 85.226 111.813 84.158C111.813 82.562 112.215 81.332 113.019 80.468C113.823 79.604 114.915 79.172 116.295 79.172C117.171 79.172 117.939 79.37 118.599 79.766C119.271 80.15 119.793 80.714 120.165 81.458C120.549 82.19 120.741 83.09 120.741 84.158ZM113.451 84.158C113.451 85.298 113.673 86.204 114.117 86.876C114.573 87.536 115.293 87.866 116.277 87.866C117.249 87.866 117.963 87.536 118.419 86.876C118.875 86.204 119.103 85.298 119.103 84.158C119.103 83.018 118.875 82.124 118.419 81.476C117.963 80.828 117.243 80.504 116.259 80.504C115.275 80.504 114.561 80.828 114.117 81.476C113.673 82.124 113.451 83.018 113.451 84.158Z" fill="#FFEBEA"/>
<path d="M125.023 89L121.369 79.352H123.061L125.113 85.04C125.209 85.304 125.311 85.598 125.419 85.922C125.527 86.246 125.623 86.558 125.707 86.858C125.791 87.146 125.851 87.392 125.887 87.596H125.959C126.007 87.392 126.073 87.14 126.157 86.84C126.253 86.54 126.355 86.228 126.463 85.904C126.583 85.58 126.685 85.292 126.769 85.04L128.821 79.352H130.513L126.841 89H125.023Z" fill="#FFEBEA"/>
<path d="M135.766 79.172C136.594 79.172 137.302 79.352 137.89 79.712C138.49 80.072 138.946 80.582 139.258 81.242C139.582 81.89 139.744 82.652 139.744 83.528V84.482H133.138C133.162 85.574 133.438 86.408 133.966 86.984C134.506 87.548 135.256 87.83 136.216 87.83C136.828 87.83 137.368 87.776 137.836 87.668C138.316 87.548 138.808 87.38 139.312 87.164V88.55C138.82 88.766 138.334 88.922 137.854 89.018C137.374 89.126 136.804 89.18 136.144 89.18C135.232 89.18 134.422 88.994 133.714 88.622C133.018 88.25 132.472 87.698 132.076 86.966C131.692 86.222 131.5 85.316 131.5 84.248C131.5 83.192 131.674 82.286 132.022 81.53C132.382 80.774 132.88 80.192 133.516 79.784C134.164 79.376 134.914 79.172 135.766 79.172ZM135.748 80.468C134.992 80.468 134.392 80.714 133.948 81.206C133.516 81.686 133.258 82.358 133.174 83.222H138.088C138.076 82.406 137.884 81.746 137.512 81.242C137.14 80.726 136.552 80.468 135.748 80.468Z" fill="#FFEBEA"/>
<path d="M152.784 79.172C153.876 79.172 154.692 79.454 155.232 80.018C155.772 80.57 156.042 81.47 156.042 82.718V89H154.476V82.79C154.476 81.266 153.822 80.504 152.514 80.504C151.578 80.504 150.906 80.774 150.498 81.314C150.102 81.854 149.904 82.64 149.904 83.672V89H148.338V82.79C148.338 81.266 147.678 80.504 146.358 80.504C145.386 80.504 144.714 80.804 144.342 81.404C143.97 82.004 143.784 82.868 143.784 83.996V89H142.2V79.352H143.478L143.712 80.666H143.802C144.102 80.162 144.504 79.79 145.008 79.55C145.524 79.298 146.07 79.172 146.646 79.172C148.158 79.172 149.142 79.712 149.598 80.792H149.688C150.012 80.24 150.45 79.832 151.002 79.568C151.566 79.304 152.16 79.172 152.784 79.172Z" fill="#FFEBEA"/>
<path d="M162.748 79.172C163.576 79.172 164.284 79.352 164.872 79.712C165.472 80.072 165.928 80.582 166.24 81.242C166.564 81.89 166.726 82.652 166.726 83.528V84.482H160.12C160.144 85.574 160.42 86.408 160.948 86.984C161.488 87.548 162.238 87.83 163.198 87.83C163.81 87.83 164.35 87.776 164.818 87.668C165.298 87.548 165.79 87.38 166.294 87.164V88.55C165.802 88.766 165.316 88.922 164.836 89.018C164.356 89.126 163.786 89.18 163.126 89.18C162.214 89.18 161.404 88.994 160.696 88.622C160 88.25 159.454 87.698 159.058 86.966C158.674 86.222 158.482 85.316 158.482 84.248C158.482 83.192 158.656 82.286 159.004 81.53C159.364 80.774 159.862 80.192 160.498 79.784C161.146 79.376 161.896 79.172 162.748 79.172ZM162.73 80.468C161.974 80.468 161.374 80.714 160.93 81.206C160.498 81.686 160.24 82.358 160.156 83.222H165.07C165.058 82.406 164.866 81.746 164.494 81.242C164.122 80.726 163.534 80.468 162.73 80.468Z" fill="#FFEBEA"/>
<path d="M173.827 79.172C174.979 79.172 175.849 79.454 176.437 80.018C177.025 80.57 177.319 81.47 177.319 82.718V89H175.753V82.826C175.753 81.278 175.033 80.504 173.593 80.504C172.525 80.504 171.787 80.804 171.379 81.404C170.971 82.004 170.767 82.868 170.767 83.996V89H169.183V79.352H170.461L170.695 80.666H170.785C171.097 80.162 171.529 79.79 172.081 79.55C172.633 79.298 173.215 79.172 173.827 79.172Z" fill="#FFEBEA"/>
<path d="M183.532 87.884C183.772 87.884 184.018 87.866 184.27 87.83C184.522 87.782 184.726 87.734 184.882 87.686V88.892C184.714 88.976 184.474 89.042 184.162 89.09C183.85 89.15 183.55 89.18 183.262 89.18C182.758 89.18 182.29 89.096 181.858 88.928C181.438 88.748 181.096 88.442 180.832 88.01C180.568 87.578 180.436 86.972 180.436 86.192V80.576H179.068V79.82L180.454 79.19L181.084 77.138H182.02V79.352H184.81V80.576H182.02V86.156C182.02 86.744 182.158 87.182 182.434 87.47C182.722 87.746 183.088 87.884 183.532 87.884Z" fill="#FFEBEA"/>
<path d="M240.404 76.742C240.404 76.394 240.494 76.142 240.674 75.986C240.854 75.818 241.076 75.734 241.34 75.734C241.58 75.734 241.79 75.818 241.97 75.986C242.162 76.142 242.258 76.394 242.258 76.742C242.258 77.078 242.162 77.33 241.97 77.498C241.79 77.666 241.58 77.75 241.34 77.75C241.076 77.75 240.854 77.666 240.674 77.498C240.494 77.33 240.404 77.078 240.404 76.742ZM239.396 93.32C239.096 93.32 238.832 93.296 238.604 93.248C238.376 93.212 238.178 93.164 238.01 93.104V91.826C238.19 91.874 238.376 91.916 238.568 91.952C238.76 91.988 238.97 92.006 239.198 92.006C239.582 92.006 239.9 91.898 240.152 91.682C240.404 91.478 240.53 91.082 240.53 90.494V79.352H242.114V90.44C242.114 91.34 241.898 92.042 241.466 92.546C241.034 93.062 240.344 93.32 239.396 93.32Z" fill="#FFEBEA"/>
<path d="M253.235 79.352V89H251.939L251.705 87.722H251.633C251.321 88.226 250.889 88.598 250.337 88.838C249.785 89.066 249.197 89.18 248.573 89.18C247.409 89.18 246.533 88.904 245.945 88.352C245.357 87.788 245.063 86.894 245.063 85.67V79.352H246.665V85.562C246.665 87.098 247.379 87.866 248.807 87.866C249.875 87.866 250.613 87.566 251.021 86.966C251.441 86.366 251.651 85.502 251.651 84.374V79.352H253.235Z" fill="#FFEBEA"/>
<path d="M266.882 79.172C267.974 79.172 268.79 79.454 269.33 80.018C269.87 80.57 270.14 81.47 270.14 82.718V89H268.574V82.79C268.574 81.266 267.92 80.504 266.612 80.504C265.676 80.504 265.004 80.774 264.596 81.314C264.2 81.854 264.002 82.64 264.002 83.672V89H262.436V82.79C262.436 81.266 261.776 80.504 260.456 80.504C259.484 80.504 258.812 80.804 258.44 81.404C258.068 82.004 257.882 82.868 257.882 83.996V89H256.298V79.352H257.576L257.81 80.666H257.9C258.2 80.162 258.602 79.79 259.106 79.55C259.622 79.298 260.168 79.172 260.744 79.172C262.256 79.172 263.24 79.712 263.696 80.792H263.786C264.11 80.24 264.548 79.832 265.1 79.568C265.664 79.304 266.258 79.172 266.882 79.172Z" fill="#FFEBEA"/>
<path d="M277.71 79.172C278.898 79.172 279.852 79.586 280.572 80.414C281.304 81.242 281.67 82.49 281.67 84.158C281.67 85.802 281.304 87.05 280.572 87.902C279.852 88.754 278.892 89.18 277.692 89.18C276.948 89.18 276.33 89.042 275.838 88.766C275.358 88.478 274.98 88.148 274.704 87.776H274.596C274.62 87.98 274.644 88.238 274.668 88.55C274.692 88.862 274.704 89.132 274.704 89.36V93.32H273.12V79.352H274.416L274.632 80.666H274.704C274.992 80.246 275.37 79.892 275.838 79.604C276.306 79.316 276.93 79.172 277.71 79.172ZM277.422 80.504C276.438 80.504 275.742 80.78 275.334 81.332C274.938 81.884 274.728 82.724 274.704 83.852V84.158C274.704 85.346 274.896 86.264 275.28 86.912C275.676 87.548 276.402 87.866 277.458 87.866C278.046 87.866 278.526 87.704 278.898 87.38C279.282 87.056 279.564 86.618 279.744 86.066C279.936 85.502 280.032 84.86 280.032 84.14C280.032 83.036 279.816 82.154 279.384 81.494C278.964 80.834 278.31 80.504 277.422 80.504Z" fill="#FFEBEA"/>
<path d="M243.812 53.336C243.812 54.272 243.464 54.98 242.768 55.46C242.072 55.94 241.136 56.18 239.96 56.18C239.288 56.18 238.706 56.126 238.214 56.018C237.734 55.91 237.308 55.76 236.936 55.568V54.128C237.32 54.32 237.782 54.5 238.322 54.668C238.874 54.824 239.432 54.902 239.996 54.902C240.8 54.902 241.382 54.776 241.742 54.524C242.102 54.26 242.282 53.912 242.282 53.48C242.282 53.24 242.216 53.024 242.084 52.832C241.952 52.64 241.712 52.448 241.364 52.256C241.028 52.064 240.542 51.848 239.906 51.608C239.282 51.368 238.748 51.128 238.304 50.888C237.86 50.648 237.518 50.36 237.278 50.024C237.038 49.688 236.918 49.256 236.918 48.728C236.918 47.912 237.248 47.282 237.908 46.838C238.58 46.394 239.456 46.172 240.536 46.172C241.124 46.172 241.67 46.232 242.174 46.352C242.69 46.46 243.17 46.616 243.614 46.82L243.074 48.08C242.666 47.912 242.24 47.768 241.796 47.648C241.352 47.528 240.896 47.468 240.428 47.468C239.78 47.468 239.282 47.576 238.934 47.792C238.598 47.996 238.43 48.278 238.43 48.638C238.43 48.902 238.508 49.13 238.664 49.322C238.82 49.502 239.078 49.682 239.438 49.862C239.81 50.03 240.302 50.234 240.914 50.474C241.526 50.702 242.048 50.936 242.48 51.176C242.912 51.416 243.242 51.71 243.47 52.058C243.698 52.394 243.812 52.82 243.812 53.336Z" fill="#FFEBEA"/>
<path d="M250.734 46.172C251.922 46.172 252.876 46.586 253.596 47.414C254.328 48.242 254.694 49.49 254.694 51.158C254.694 52.802 254.328 54.05 253.596 54.902C252.876 55.754 251.916 56.18 250.716 56.18C249.972 56.18 249.354 56.042 248.862 55.766C248.382 55.478 248.004 55.148 247.728 54.776H247.62C247.644 54.98 247.668 55.238 247.692 55.55C247.716 55.862 247.728 56.132 247.728 56.36V60.32H246.144V46.352H247.44L247.656 47.666H247.728C248.016 47.246 248.394 46.892 248.862 46.604C249.33 46.316 249.954 46.172 250.734 46.172ZM250.446 47.504C249.462 47.504 248.766 47.78 248.358 48.332C247.962 48.884 247.752 49.724 247.728 50.852V51.158C247.728 52.346 247.92 53.264 248.304 53.912C248.7 54.548 249.426 54.866 250.482 54.866C251.07 54.866 251.55 54.704 251.922 54.38C252.306 54.056 252.588 53.618 252.768 53.066C252.96 52.502 253.056 51.86 253.056 51.14C253.056 50.036 252.84 49.154 252.408 48.494C251.988 47.834 251.334 47.504 250.446 47.504Z" fill="#FFEBEA"/>
<path d="M260.872 46.19C262.048 46.19 262.918 46.448 263.482 46.964C264.046 47.48 264.328 48.302 264.328 49.43V56H263.176L262.87 54.632H262.798C262.378 55.16 261.934 55.55 261.466 55.802C261.01 56.054 260.374 56.18 259.558 56.18C258.682 56.18 257.956 55.952 257.38 55.496C256.804 55.028 256.516 54.302 256.516 53.318C256.516 52.358 256.894 51.62 257.65 51.104C258.406 50.576 259.57 50.288 261.142 50.24L262.78 50.186V49.61C262.78 48.806 262.606 48.248 262.258 47.936C261.91 47.624 261.418 47.468 260.782 47.468C260.278 47.468 259.798 47.546 259.342 47.702C258.886 47.846 258.46 48.014 258.064 48.206L257.578 47.018C257.998 46.79 258.496 46.598 259.072 46.442C259.648 46.274 260.248 46.19 260.872 46.19ZM262.762 51.284L261.34 51.338C260.14 51.386 259.306 51.578 258.838 51.914C258.382 52.25 258.154 52.724 258.154 53.336C258.154 53.876 258.316 54.272 258.64 54.524C258.976 54.776 259.402 54.902 259.918 54.902C260.734 54.902 261.412 54.68 261.952 54.236C262.492 53.78 262.762 53.084 262.762 52.148V51.284Z" fill="#FFEBEA"/>
<path d="M271.178 56.18C270.326 56.18 269.564 56.006 268.892 55.658C268.232 55.31 267.71 54.77 267.326 54.038C266.954 53.306 266.768 52.37 266.768 51.23C266.768 50.042 266.966 49.076 267.362 48.332C267.758 47.588 268.292 47.042 268.964 46.694C269.648 46.346 270.422 46.172 271.286 46.172C271.778 46.172 272.252 46.226 272.708 46.334C273.164 46.43 273.536 46.55 273.824 46.694L273.338 48.008C273.05 47.9 272.714 47.798 272.33 47.702C271.946 47.606 271.586 47.558 271.25 47.558C269.354 47.558 268.406 48.776 268.406 51.212C268.406 52.376 268.634 53.27 269.09 53.894C269.558 54.506 270.248 54.812 271.16 54.812C271.688 54.812 272.15 54.758 272.546 54.65C272.954 54.542 273.326 54.41 273.662 54.254V55.658C273.338 55.826 272.978 55.952 272.582 56.036C272.198 56.132 271.73 56.18 271.178 56.18Z" fill="#FFEBEA"/>
<path d="M279.682 46.172C280.51 46.172 281.218 46.352 281.806 46.712C282.406 47.072 282.862 47.582 283.174 48.242C283.498 48.89 283.66 49.652 283.66 50.528V51.482H277.054C277.078 52.574 277.354 53.408 277.882 53.984C278.422 54.548 279.172 54.83 280.132 54.83C280.744 54.83 281.284 54.776 281.752 54.668C282.232 54.548 282.724 54.38 283.228 54.164V55.55C282.736 55.766 282.25 55.922 281.77 56.018C281.29 56.126 280.72 56.18 280.06 56.18C279.148 56.18 278.338 55.994 277.63 55.622C276.934 55.25 276.388 54.698 275.992 53.966C275.608 53.222 275.416 52.316 275.416 51.248C275.416 50.192 275.59 49.286 275.938 48.53C276.298 47.774 276.796 47.192 277.432 46.784C278.08 46.376 278.83 46.172 279.682 46.172ZM279.664 47.468C278.908 47.468 278.308 47.714 277.864 48.206C277.432 48.686 277.174 49.358 277.09 50.222H282.004C281.992 49.406 281.8 48.746 281.428 48.242C281.056 47.726 280.468 47.468 279.664 47.468Z" fill="#FFEBEA"/>
<path d="M141.414 20.982L139.758 15.546C139.602 15.054 139.464 14.574 139.344 14.106C139.236 13.626 139.152 13.254 139.092 12.99H139.02C138.972 13.254 138.894 13.626 138.786 14.106C138.678 14.574 138.54 15.06 138.372 15.564L136.644 20.982H134.844L132.198 11.334H133.836L135.168 16.482C135.3 16.998 135.426 17.52 135.546 18.048C135.666 18.576 135.75 19.014 135.798 19.362H135.87C135.918 19.158 135.972 18.906 136.032 18.606C136.104 18.306 136.182 17.994 136.266 17.67C136.35 17.334 136.434 17.034 136.518 16.77L138.228 11.334H139.956L141.612 16.77C141.744 17.178 141.87 17.622 141.99 18.102C142.122 18.582 142.212 18.996 142.26 19.344H142.332C142.368 19.044 142.446 18.63 142.566 18.102C142.698 17.574 142.836 17.034 142.98 16.482L144.33 11.334H145.95L143.268 20.982H141.414Z" fill="#FFEBEA"/>
<path d="M104.184 46.19C105.36 46.19 106.23 46.448 106.794 46.964C107.358 47.48 107.64 48.302 107.64 49.43V56H106.488L106.182 54.632H106.11C105.69 55.16 105.246 55.55 104.778 55.802C104.322 56.054 103.686 56.18 102.87 56.18C101.994 56.18 101.268 55.952 100.692 55.496C100.116 55.028 99.8283 54.302 99.8283 53.318C99.8283 52.358 100.206 51.62 100.962 51.104C101.718 50.576 102.882 50.288 104.454 50.24L106.092 50.186V49.61C106.092 48.806 105.918 48.248 105.57 47.936C105.222 47.624 104.73 47.468 104.094 47.468C103.59 47.468 103.11 47.546 102.654 47.702C102.198 47.846 101.772 48.014 101.376 48.206L100.89 47.018C101.31 46.79 101.808 46.598 102.384 46.442C102.96 46.274 103.56 46.19 104.184 46.19ZM106.074 51.284L104.652 51.338C103.452 51.386 102.618 51.578 102.15 51.914C101.694 52.25 101.466 52.724 101.466 53.336C101.466 53.876 101.628 54.272 101.952 54.524C102.288 54.776 102.714 54.902 103.23 54.902C104.046 54.902 104.724 54.68 105.264 54.236C105.804 53.78 106.074 53.084 106.074 52.148V51.284Z" fill="#FFEBEA"/>
<path d="M174.95 56.18C173.75 56.18 172.79 55.766 172.07 54.938C171.35 54.098 170.99 52.85 170.99 51.194C170.99 49.538 171.35 48.29 172.07 47.45C172.802 46.598 173.768 46.172 174.968 46.172C175.712 46.172 176.318 46.31 176.786 46.586C177.266 46.862 177.656 47.198 177.956 47.594H178.064C178.052 47.438 178.028 47.21 177.992 46.91C177.968 46.598 177.956 46.352 177.956 46.172V42.32H179.54V56H178.262L178.028 54.704H177.956C177.668 55.112 177.284 55.46 176.804 55.748C176.324 56.036 175.706 56.18 174.95 56.18ZM175.202 54.866C176.222 54.866 176.936 54.59 177.344 54.038C177.764 53.474 177.974 52.628 177.974 51.5V51.212C177.974 50.012 177.776 49.094 177.38 48.458C176.984 47.81 176.252 47.486 175.184 47.486C174.332 47.486 173.69 47.828 173.258 48.512C172.838 49.184 172.628 50.09 172.628 51.23C172.628 52.382 172.838 53.276 173.258 53.912C173.69 54.548 174.338 54.866 175.202 54.866Z" fill="#FFEBEA"/>
<path d="M142.812 52.336C142.812 53.272 142.464 53.98 141.768 54.46C141.072 54.94 140.136 55.18 138.96 55.18C138.288 55.18 137.706 55.126 137.214 55.018C136.734 54.91 136.308 54.76 135.936 54.568V53.128C136.32 53.32 136.782 53.5 137.322 53.668C137.874 53.824 138.432 53.902 138.996 53.902C139.8 53.902 140.382 53.776 140.742 53.524C141.102 53.26 141.282 52.912 141.282 52.48C141.282 52.24 141.216 52.024 141.084 51.832C140.952 51.64 140.712 51.448 140.364 51.256C140.028 51.064 139.542 50.848 138.906 50.608C138.282 50.368 137.748 50.128 137.304 49.888C136.86 49.648 136.518 49.36 136.278 49.024C136.038 48.688 135.918 48.256 135.918 47.728C135.918 46.912 136.248 46.282 136.908 45.838C137.58 45.394 138.456 45.172 139.536 45.172C140.124 45.172 140.67 45.232 141.174 45.352C141.69 45.46 142.17 45.616 142.614 45.82L142.074 47.08C141.666 46.912 141.24 46.768 140.796 46.648C140.352 46.528 139.896 46.468 139.428 46.468C138.78 46.468 138.282 46.576 137.934 46.792C137.598 46.996 137.43 47.278 137.43 47.638C137.43 47.902 137.508 48.13 137.664 48.322C137.82 48.502 138.078 48.682 138.438 48.862C138.81 49.03 139.302 49.234 139.914 49.474C140.526 49.702 141.048 49.936 141.48 50.176C141.912 50.416 142.242 50.71 142.47 51.058C142.698 51.394 142.812 51.82 142.812 52.336Z" fill="#FFEBEA"/>
<path d="M16.1143 75.32V78.65C16.1143 79.058 16.1023 79.442 16.0783 79.802C16.0663 80.15 16.0483 80.426 16.0243 80.63H16.1143C16.3903 80.222 16.7683 79.88 17.2483 79.604C17.7283 79.328 18.3463 79.19 19.1023 79.19C20.3023 79.19 21.2623 79.61 21.9823 80.45C22.7143 81.278 23.0803 82.52 23.0803 84.176C23.0803 85.832 22.7143 87.08 21.9823 87.92C21.2503 88.76 20.2903 89.18 19.1023 89.18C18.3463 89.18 17.7283 89.042 17.2483 88.766C16.7683 88.49 16.3903 88.16 16.1143 87.776H15.9883L15.6643 89H14.5303V75.32H16.1143ZM18.8323 80.504C17.8123 80.504 17.1043 80.798 16.7083 81.386C16.3123 81.974 16.1143 82.886 16.1143 84.122V84.194C16.1143 85.382 16.3063 86.294 16.6903 86.93C17.0863 87.554 17.8123 87.866 18.8683 87.866C19.7323 87.866 20.3743 87.548 20.7943 86.912C21.2263 86.276 21.4423 85.358 21.4423 84.158C21.4423 81.722 20.5723 80.504 18.8323 80.504Z" fill="#FFEBEA"/>
<path d="M33.9925 84.158C33.9925 85.754 33.5845 86.99 32.7685 87.866C31.9645 88.742 30.8725 89.18 29.4925 89.18C28.6405 89.18 27.8785 88.988 27.2065 88.604C26.5465 88.208 26.0245 87.638 25.6405 86.894C25.2565 86.138 25.0645 85.226 25.0645 84.158C25.0645 82.562 25.4665 81.332 26.2705 80.468C27.0745 79.604 28.1665 79.172 29.5465 79.172C30.4225 79.172 31.1905 79.37 31.8505 79.766C32.5225 80.15 33.0445 80.714 33.4165 81.458C33.8005 82.19 33.9925 83.09 33.9925 84.158ZM26.7025 84.158C26.7025 85.298 26.9245 86.204 27.3685 86.876C27.8245 87.536 28.5445 87.866 29.5285 87.866C30.5005 87.866 31.2145 87.536 31.6705 86.876C32.1265 86.204 32.3545 85.298 32.3545 84.158C32.3545 83.018 32.1265 82.124 31.6705 81.476C31.2145 80.828 30.4945 80.504 29.5105 80.504C28.5265 80.504 27.8125 80.828 27.3685 81.476C26.9245 82.124 26.7025 83.018 26.7025 84.158Z" fill="#FFEBEA"/>
<path d="M44.8909 84.158C44.8909 85.754 44.4829 86.99 43.6669 87.866C42.8629 88.742 41.7709 89.18 40.3909 89.18C39.5389 89.18 38.7769 88.988 38.1049 88.604C37.4449 88.208 36.9229 87.638 36.5389 86.894C36.1549 86.138 35.9629 85.226 35.9629 84.158C35.9629 82.562 36.3649 81.332 37.1689 80.468C37.9729 79.604 39.0649 79.172 40.4449 79.172C41.3209 79.172 42.0889 79.37 42.7489 79.766C43.4209 80.15 43.9429 80.714 44.3149 81.458C44.6989 82.19 44.8909 83.09 44.8909 84.158ZM37.6009 84.158C37.6009 85.298 37.8229 86.204 38.2669 86.876C38.7229 87.536 39.4429 87.866 40.4269 87.866C41.3989 87.866 42.1129 87.536 42.5689 86.876C43.0249 86.204 43.2529 85.298 43.2529 84.158C43.2529 83.018 43.0249 82.124 42.5689 81.476C42.1129 80.828 41.3929 80.504 40.4089 80.504C39.4249 80.504 38.7109 80.828 38.2669 81.476C37.8229 82.124 37.6009 83.018 37.6009 84.158Z" fill="#FFEBEA"/>
<path d="M53.6834 86.336C53.6834 87.272 53.3354 87.98 52.6394 88.46C51.9434 88.94 51.0074 89.18 49.8314 89.18C49.1594 89.18 48.5774 89.126 48.0854 89.018C47.6054 88.91 47.1794 88.76 46.8074 88.568V87.128C47.1914 87.32 47.6534 87.5 48.1934 87.668C48.7454 87.824 49.3034 87.902 49.8674 87.902C50.6714 87.902 51.2534 87.776 51.6134 87.524C51.9734 87.26 52.1534 86.912 52.1534 86.48C52.1534 86.24 52.0874 86.024 51.9554 85.832C51.8234 85.64 51.5834 85.448 51.2354 85.256C50.8994 85.064 50.4134 84.848 49.7774 84.608C49.1534 84.368 48.6194 84.128 48.1754 83.888C47.7314 83.648 47.3894 83.36 47.1494 83.024C46.9094 82.688 46.7894 82.256 46.7894 81.728C46.7894 80.912 47.1194 80.282 47.7794 79.838C48.4514 79.394 49.3274 79.172 50.4074 79.172C50.9954 79.172 51.5414 79.232 52.0454 79.352C52.5614 79.46 53.0414 79.616 53.4854 79.82L52.9454 81.08C52.5374 80.912 52.1114 80.768 51.6674 80.648C51.2234 80.528 50.7674 80.468 50.2994 80.468C49.6514 80.468 49.1534 80.576 48.8054 80.792C48.4694 80.996 48.3014 81.278 48.3014 81.638C48.3014 81.902 48.3794 82.13 48.5354 82.322C48.6914 82.502 48.9494 82.682 49.3094 82.862C49.6814 83.03 50.1734 83.234 50.7854 83.474C51.3974 83.702 51.9194 83.936 52.3514 84.176C52.7834 84.416 53.1134 84.71 53.3414 85.058C53.5694 85.394 53.6834 85.82 53.6834 86.336Z" fill="#FFEBEA"/>
<path d="M59.2366 87.884C59.4766 87.884 59.7226 87.866 59.9746 87.83C60.2266 87.782 60.4306 87.734 60.5866 87.686V88.892C60.4186 88.976 60.1786 89.042 59.8666 89.09C59.5546 89.15 59.2546 89.18 58.9666 89.18C58.4626 89.18 57.9946 89.096 57.5626 88.928C57.1426 88.748 56.8006 88.442 56.5366 88.01C56.2726 87.578 56.1406 86.972 56.1406 86.192V80.576H54.7726V79.82L56.1586 79.19L56.7886 77.138H57.7246V79.352H60.5146V80.576H57.7246V86.156C57.7246 86.744 57.8626 87.182 58.1386 87.47C58.4266 87.746 58.7926 87.884 59.2366 87.884Z" fill="#FFEBEA"/>
<path d="M25.8123 55.336C25.8123 56.272 25.4643 56.98 24.7683 57.46C24.0723 57.94 23.1363 58.18 21.9603 58.18C21.2883 58.18 20.7063 58.126 20.2143 58.018C19.7343 57.91 19.3083 57.76 18.9363 57.568V56.128C19.3203 56.32 19.7823 56.5 20.3223 56.668C20.8743 56.824 21.4323 56.902 21.9963 56.902C22.8003 56.902 23.3823 56.776 23.7423 56.524C24.1023 56.26 24.2823 55.912 24.2823 55.48C24.2823 55.24 24.2163 55.024 24.0843 54.832C23.9523 54.64 23.7123 54.448 23.3643 54.256C23.0283 54.064 22.5423 53.848 21.9063 53.608C21.2823 53.368 20.7483 53.128 20.3043 52.888C19.8603 52.648 19.5183 52.36 19.2783 52.024C19.0383 51.688 18.9183 51.256 18.9183 50.728C18.9183 49.912 19.2483 49.282 19.9083 48.838C20.5803 48.394 21.4563 48.172 22.5363 48.172C23.1243 48.172 23.6703 48.232 24.1743 48.352C24.6903 48.46 25.1703 48.616 25.6143 48.82L25.0743 50.08C24.6663 49.912 24.2403 49.768 23.7963 49.648C23.3523 49.528 22.8963 49.468 22.4283 49.468C21.7803 49.468 21.2823 49.576 20.9343 49.792C20.5983 49.996 20.4303 50.278 20.4303 50.638C20.4303 50.902 20.5083 51.13 20.6643 51.322C20.8203 51.502 21.0783 51.682 21.4383 51.862C21.8103 52.03 22.3023 52.234 22.9143 52.474C23.5263 52.702 24.0483 52.936 24.4803 53.176C24.9123 53.416 25.2423 53.71 25.4703 54.058C25.6983 54.394 25.8123 54.82 25.8123 55.336Z" fill="#FFEBEA"/>
<path d="M29.7276 44.32V48.334C29.7276 48.814 29.6976 49.264 29.6376 49.684H29.7456C30.0576 49.192 30.4776 48.82 31.0056 48.568C31.5456 48.316 32.1276 48.19 32.7516 48.19C33.9276 48.19 34.8096 48.472 35.3976 49.036C35.9856 49.588 36.2796 50.482 36.2796 51.718V58H34.7136V51.826C34.7136 50.278 33.9936 49.504 32.5536 49.504C31.4736 49.504 30.7296 49.81 30.3216 50.422C29.9256 51.022 29.7276 51.886 29.7276 53.014V58H28.1436V44.32H29.7276Z" fill="#FFEBEA"/>
<path d="M40.0805 44.734C40.3205 44.734 40.5305 44.818 40.7105 44.986C40.9025 45.142 40.9985 45.394 40.9985 45.742C40.9985 46.078 40.9025 46.33 40.7105 46.498C40.5305 46.666 40.3205 46.75 40.0805 46.75C39.8165 46.75 39.5945 46.666 39.4145 46.498C39.2345 46.33 39.1445 46.078 39.1445 45.742C39.1445 45.394 39.2345 45.142 39.4145 44.986C39.5945 44.818 39.8165 44.734 40.0805 44.734ZM40.8545 48.352V58H39.2705V48.352H40.8545Z" fill="#FFEBEA"/>
<path d="M48.3571 49.576H45.9271V58H44.3431V49.576H42.6511V48.838L44.3431 48.298V47.74C44.3431 46.492 44.6191 45.598 45.1711 45.058C45.7231 44.506 46.4911 44.23 47.4751 44.23C47.8591 44.23 48.2071 44.266 48.5191 44.338C48.8431 44.398 49.1191 44.47 49.3471 44.554L48.9331 45.796C48.7411 45.736 48.5191 45.676 48.2671 45.616C48.0151 45.556 47.7571 45.526 47.4931 45.526C46.9651 45.526 46.5691 45.706 46.3051 46.066C46.0531 46.414 45.9271 46.966 45.9271 47.722V48.352H48.3571V49.576Z" fill="#FFEBEA"/>
<path d="M53.3206 56.884C53.5606 56.884 53.8066 56.866 54.0586 56.83C54.3106 56.782 54.5146 56.734 54.6706 56.686V57.892C54.5026 57.976 54.2626 58.042 53.9506 58.09C53.6386 58.15 53.3386 58.18 53.0506 58.18C52.5466 58.18 52.0786 58.096 51.6466 57.928C51.2266 57.748 50.8846 57.442 50.6206 57.01C50.3566 56.578 50.2246 55.972 50.2246 55.192V49.576H48.8566V48.82L50.2426 48.19L50.8726 46.138H51.8086V48.352H54.5986V49.576H51.8086V55.156C51.8086 55.744 51.9466 56.182 52.2226 56.47C52.5106 56.746 52.8766 56.884 53.3206 56.884Z" fill="#FFEBEA"/>
<rect x="1.5" y="38.5" width="71" height="27" rx="6.5" stroke="#FFEBEA" stroke-width="3"/>
</svg>
